<?xml version="1.0" encoding="UTF-8"?>
<svg id="uuid-795f52b2-db44-4a59-bb83-c91f81b27806" data-name="Ebene 1" xmlns="http://www.w3.org/2000/svg" viewBox="0 0 512 512">
  <defs>
    <style>
      .uuid-880f09db-4f7f-43f4-85e7-0b2272db2984 {
        fill: #366b41;
      }

      .uuid-84ad1351-4822-445f-9d43-98b1627b5e9a {
        fill: #14381f;
      }

      .uuid-74624ed9-d539-42e8-b92a-ad95a9f8990e {
        fill: #376942;
      }

      .uuid-c1730b70-3c08-4999-85b1-d77229a3539e {
        fill: #376a42;
      }

      .uuid-4fbf047e-2b79-4e4f-8683-325fbec33001 {
        fill: #386b42;
      }

      .uuid-4b92a769-1d99-4beb-804a-c1d45b69ad3d {
        fill: #376a41;
      }

      .uuid-db289d10-99be-4eea-a477-303f341fdaaf {
        fill: #376d42;
      }

      .uuid-52655a9b-625c-490d-bfe3-d6cb4578acaf {
        fill: #376b41;
      }

      .uuid-e3f350ec-27a2-46b7-97be-7d92ef70e410 {
        fill: #376a43;
      }

      .uuid-3be64140-b720-4387-b2a0-7dbf9f693771 {
        fill: #376943;
      }

      .uuid-49adc07d-fc16-4807-9e59-0ec08bb8a17c {
        fill: #265132;
      }

      .uuid-b73a780f-f260-4063-83c0-23b749d6da1f {
        fill: #376b42;
      }
    </style>
  </defs>
  <path class="uuid-84ad1351-4822-445f-9d43-98b1627b5e9a" d="M193.08.1c41.64-.19,83.31-.06,124.96-.06,11.38-.05,21.02,10.44,20.77,21.68.07,58.24.03,116.47.03,174.7.09,20.32-1.42,40.58-2.54,60.85-4.48,75.59-9.1,151.17-13.98,226.73-.53,6.19.04,12.84-3.03,18.49-3.18,5.95-9.82,9.69-16.53,9.51-30.92,0-61.84,0-92.76,0-6.49.19-12.99-3.04-16.34-8.66-3.66-5.72-3.07-12.79-3.62-19.25-4.97-73.75-9.57-147.53-13.72-221.32-1.19-23.08-3.3-46.11-3.15-69.23.03-57.27-.07-114.54.03-171.81-.19-10.9,8.85-21.18,19.88-21.62M191.07,3.85c-8.94,1.13-15.19,10.08-14.7,18.81-.15,59.85-.08,119.71-.07,179.56-.22,10.33.48,20.61,1.67,30.85.28,20.98,2.9,41.84,3.14,62.82,1.98,17.66,1.64,35.47,3.46,53.14.55,8.97.21,17.98,1.46,26.91,2.38,21.52,1.52,43.29,4.35,64.77,1.28,14.3.87,28.7,2.57,42.98.81,6.89.18,14.66,4.7,20.45,3.09,4.08,8.44,5.27,13.31,5.22,30.27-.22,60.54,0,90.8-.1,5.22-.1,11.02-1.71,14.11-6.24,2.78-4.52,2.79-10.03,3.28-15.14,1.78-17.36,1.29-34.88,3.59-52.2.79-15.35.88-30.73,2.63-46.02.82-23.07,3.09-46.05,3.86-69.11,2.55-27.52,2.84-55.17,5.05-82.7,1.85-26.96,1.46-53.98,1.32-80.98.04-43.75.03-87.51,0-131.26.09-6.66-1.39-13.98-6.64-18.55-3.74-3.3-8.99-3.59-13.71-3.66-36.04.02-72.07,0-108.1,0-5.37.05-10.75-.31-16.07.44h0Z"/>
  <path class="uuid-49adc07d-fc16-4807-9e59-0ec08bb8a17c" d="M191.07,3.85c5.32-.75,10.7-.4,16.07-.44,36.03-.02,72.07,0,108.1,0,4.73.07,9.98.36,13.71,3.66,5.25,4.56,6.73,11.89,6.64,18.55.03,43.75.04,87.51,0,131.26.14,27,.53,54.03-1.32,80.98-2.21,27.53-2.5,55.19-5.05,82.7-.77,23.07-3.04,46.05-3.86,69.11-1.75,15.29-1.83,30.67-2.63,46.02-2.3,17.32-1.81,34.84-3.59,52.2-.49,5.12-.5,10.63-3.28,15.14-3.09,4.54-8.89,6.15-14.11,6.24-30.26.1-60.53-.13-90.8.1-4.86.05-10.22-1.14-13.31-5.22-4.52-5.79-3.89-13.56-4.7-20.45-1.7-14.27-1.28-28.67-2.57-42.98-2.83-21.48-1.97-43.25-4.35-64.77-1.24-8.93-.91-17.94-1.46-26.91-1.82-17.67-1.49-35.48-3.46-53.14-.24-20.98-2.86-41.84-3.14-62.82-1.19-10.24-1.89-20.53-1.67-30.85,0-59.85-.09-119.71.07-179.56-.49-8.73,5.76-17.68,14.7-18.81M193,7.75c-6.86.83-12.5,6.96-12.18,13.97.07,8.99-.42,18.03.29,26.99.18,4.64,4.87,7.02,9,7.24,27.21,1.34,54.46-.27,81.7.48,15.12.33,30.25-.33,45.37-.02,4.31,0,9.61,0,12.34-3.99,3.07-4.79,1.9-10.82,2.14-16.2-.28-8.01,1.23-17.15-4.12-23.91-3.28-4.38-9.15-5.02-14.22-5.03-35.72.04-71.44.07-107.16,0-4.39.02-8.82-.23-13.17.46M185.82,60.28c-6.65,2.4-5.53,10.92-4.82,16.47.15,4.56,4.38,7.65,8.72,7.62,6.51.17,13.27.99,19.64-.67,2.69-2.32,2.87-6.45,4.23-9.6,1.62,3.63,2.1,9.73,7.23,9.89,5.72.32,11.97,1.14,17.37-1.17,1.72-2.67,2.39-5.84,3.49-8.78,1.51,3.51,1.2,9.64,6.14,10.16,5.32.74,10.79.77,16.12,0,4.59-.69,4.66-6.36,6-9.82,1.22,2.93,1.64,6.66,4.22,8.73,5.62,1.77,11.76,1.36,17.55.72,4.78-.5,4.88-6.13,6.18-9.61,1.62,2.92,1.93,6.62,3.82,9.28,5.22,1.9,10.98.88,16.45,1.06,4.43-.14,10.45-.14,12.43-5.03,1.66-4.85,1.59-10.38-.03-15.24-1.54-4.23-6.53-4.93-10.44-4.91-5.61.07-11.33-.52-16.84.66-3.78,1.01-3.22,5.77-4.09,8.76-.42.03-1.26.09-1.68.12-.99-3.37-.69-9.23-5.43-9.45-6.08-.36-12.53-1.12-18.4.78-2.05,2.63-2.69,6.01-3.74,9.11-1.5-3.53-1.92-9.5-6.83-9.73-5.74-.32-11.76-.89-17.33.73-2.02,2.81-2.49,6.46-3.89,9.59-2.05-3.53-1.41-10.38-6.75-10.53-5.39-.44-10.89-.65-16.25.14-4.42.84-3.87,6.46-4.98,9.78-1.83-3.71-2.15-10.28-7.67-9.84-6.78-.03-13.74-.73-20.4.75M180.73,96.98c-.19,5.06-.38,12.28,5.51,14.22,6.76,1.83,13.96,1.1,20.89.97,5.11-.13,4.82-6.6,6.54-10.08,1.4,3.53.95,9.88,6.03,10.17,5.11.56,10.29.53,15.41.07,5.24-.11,4.72-6.74,6.55-10.25,1.41,3.02,2.03,6.66,4.39,9.1,5.37,1.88,11.31,1.26,16.9.85,5.15-.2,5.53-6.35,7.22-9.98,1.53,3.4.79,9.64,5.63,10.09,5.37.66,10.85.68,16.24.14,4.93-.43,4.21-6.81,6.25-10.14,1.58,3.5,1.32,9.8,6.48,9.87,6.73.45,13.61.75,20.3-.34,4.99-.83,6.67-6.33,6.54-10.73.27-4.89-.49-11.62-6.12-13.12-7.15-1.16-14.55-.91-21.74-.31-4.55.5-3.74,6.19-4.56,9.44-.45-.02-1.37-.04-1.82-.05-1.09-3.24-.84-8.94-5.45-9.09-5.96-.31-12.31-1.15-18.06.69-1.96,2.75-2.6,6.2-3.82,9.3-1.73-3.68-1.38-10.63-6.86-10.51-5.14-.39-10.36-.45-15.48.15-4.83.57-4.46,6.81-6.03,10.28-1.38-3.14-1.57-7.31-4.31-9.54-5.71-1.29-11.72-.81-17.51-.41-4.89.24-4.1,6.5-5.95,9.74-3.54-2.12-.82-9.21-5.94-9.91-6.93-.82-14.02-.76-20.95,0-4.47.58-6.34,5.39-6.27,9.37M187.17,115.83c-5.36.5-7.03,6.59-7.03,11.11-.26,4.84.72,11.53,6.38,12.8,6.72,1.18,13.68.77,20.45.28,5.1-.29,4.57-6.73,6.25-10.2,2.34,3.51,2.07,10.33,7.59,10.22,5.59.26,11.49.92,16.9-.84,2.37-2.3,2.8-5.98,4.04-8.98,1.41,3.48,1.18,9.52,6.06,9.95,6.02.6,12.41,1.18,18.27-.65,2.49-2.39,2.6-6.44,3.91-9.55,1.34,3.02,1.74,6.79,4.06,9.2,5.81,1.8,12.23,1.31,18.18.41,4.24-.63,4.41-5.52,5.31-8.78.34.15,1.01.45,1.35.6.93,3.36,1.04,8.84,5.73,8.88,7.06.36,14.35.89,21.28-.72,7.16-2.3,6.34-11.38,5.48-17.29-.67-4.92-5.91-7.01-10.32-6.74-6.31.24-12.99-1.01-19.03,1.12-1.93,2.72-2.75,6.02-3.98,9.08-1.35-3.24-1.17-7.98-4.44-9.93-6.33-1.1-13.07-1.19-19.35.17-2.96,2.11-3.15,6.39-4.41,9.57-1.12-3.12-1.8-6.52-3.86-9.18-6.55-1.44-13.68-1.39-20.23,0-2,2.82-2.66,6.32-3.99,9.47-1.89-3.56-1.4-10.25-6.67-10.45-5.4-.48-10.9-.61-16.25.2-4.14.9-3.56,6.23-4.55,9.41-.45-.03-1.37-.08-1.82-.11-.9-3.12-.26-8.56-4.56-9.1-6.9-.5-13.89-.53-20.78.04M180.64,152.86c-.59,5.32-.62,13.45,6.03,14.8,6.93,1.19,14.13,1.02,21.1.25,4.14-.44,4.06-5.4,5.1-8.44.34-.18,1.02-.53,1.36-.71.79,3.27.38,8.64,4.83,9.18,6.02.69,12.34,1.13,18.3-.25,2.75-2.34,2.91-6.56,4.38-9.75,1.29,3.12,1.47,7.16,3.95,9.55,5.58,1.52,11.56.84,17.29.46,5.03-.14,5.39-6.13,7.27-9.59,1.52,3.5,1.41,9.66,6.41,9.94,5.32.55,10.79.69,16.08-.28,4.4-.94,3.75-6.57,5.12-9.84,1.39,2.81,2.21,5.87,3.66,8.65,5.09,2.5,11.15.97,16.65,1.45,4.85.34,11.76-.04,12.94-5.98,1.18-6.53,1.43-17.56-7.18-18.81-6.4-.57-12.88-.55-19.28-.07-5.27.18-4.77,6.86-6.55,10.44-1.52-3.48-1.22-9.7-6.15-10.12-5.79-.49-11.82-.97-17.51.41-2.83,2.2-3.23,6.23-4.51,9.39-1.33-3.48-.98-9.7-5.83-10.14-5.43-.51-10.95-.49-16.38.06-4.74.33-4.29,6.24-5.25,9.59-.47-.05-1.42-.14-1.88-.19-.9-3.15-.36-8.51-4.64-9.08-5.64-.68-11.4-.75-17.03-.08-4.51.76-3.69,6.61-4.99,9.87-1.74-3.02-1.85-7.19-4.52-9.48-6.99-1.56-14.39-.89-21.5-.52-4.71.31-7.14,5.05-7.24,9.3M185.7,172.13c-5.97,2.05-5.06,9.67-4.93,14.7-.21,4.42,2.89,8.61,7.38,9.13,6.49.76,13.14.88,19.62-.02,4.16-.69,3.86-5.8,4.83-8.93.42-.05,1.27-.13,1.71-.17.92,3.18.47,8.47,4.74,9.16,5.25.82,10.65.64,15.93.05,5.09-.22,5.02-6.45,6.73-10,1.28,3.08,1.47,7.1,3.98,9.42,5.89,1.62,12.23,1.25,18.27.74,4.92-.5,4.26-6.77,5.92-10.22,1.38,3.03,1.68,6.87,4.11,9.27,5.39,1.86,11.36,1.22,16.97.78,5.12-.26,5.55-6.33,7.21-9.98,1.19,3.12,1.53,6.74,3.54,9.45,5.22,1.87,10.98.86,16.44,1.07,4.7.06,11.08-.39,12.61-5.85,1.61-6.12,2.7-15.81-4.55-18.68-7.09-1.19-14.41-.52-21.57-.39-5.05.14-4.84,6.57-6.53,10.05-1.5-3.52-1.12-9.83-6.05-10.3-5.85-.47-11.98-.96-17.67.64-2.74,2.37-2.93,6.56-4.32,9.77-1.28-3.1-1.5-7.16-4.01-9.49-5.95-1.49-12.28-1.02-18.37-.82-4.9.29-4.49,6.63-5.79,10.09-1.47-3.67-1.56-10.08-6.77-10.2-5.86-.3-11.96-.8-17.66.7-2.52,2.75-2.59,7.04-4.16,10.38-1.53-3.75-.88-10.46-6.31-10.79-7.05-.55-14.34-1.08-21.29.44M181.13,206.1c-.53,5.81-1.65,14.4,5.02,17.14,6.43,1.97,13.37,1.28,20,.97,5.6.17,5.36-6.56,7.82-10.06,1.32,3.48.81,9.7,5.87,9.98,6.18.41,12.91,1.35,18.78-.97,1.52-2.78,1.59-6.25,3.37-9,1.41,3.2.65,8.95,5.05,9.8,5.58.75,11.28.52,16.88,0,4.83-.39,4.31-6.66,6.39-9.91,1.35,3.12,1.19,7.48,4.11,9.6,5.98,1.46,12.37,1.15,18.47.49,4.38-.72,3.78-6.21,4.64-9.47.34.2,1.01.61,1.35.82,1,3.04.95,8.01,5.12,8.38,7.04.61,14.25.83,21.27-.15,5.57-1.2,6.53-7.8,6.12-12.56-.22-4.48-1.21-10.81-6.65-11.53-7.41-.7-15.14-1.24-22.46.31-3.09,2.27-2.53,7.08-3.79,10.46-2.15-3.68-1.9-10.67-7.4-10.77-5.77-.2-11.8-.98-17.41.62-2.44,2.64-2.19,6.79-3.22,10.11-1.43-3.42-1.91-7.35-4.1-10.38-5.72-1.56-11.84-.76-17.69-.48-5.46-.14-5.19,6.6-6.9,10.25-1.45-3.15-1.67-7.33-4.41-9.61-6.46-1.25-13.42-1.42-19.86-.04-2.63,2.6-2.67,6.78-3.88,10.13-1.24-3.2-1.48-7.1-3.84-9.69-5.71-2.21-12.11-1.04-18.12-1.22-4.39-.17-10.22,1.53-10.51,6.78M182.09,237.9c-.18,5.05.33,12.36,6.33,13.8,6.36,1.02,12.96,1,19.36.23,4.33-.57,3.89-5.82,4.73-9.01.46-.03,1.39-.08,1.86-.11.86,3.39.69,9.1,5.46,9.24,5.91.35,12.16.9,17.87-.91,2.45-2.23,2.49-6.09,3.74-9.04,2.13,3.5,1.58,10.49,7.11,10.19,5.15.31,10.36.47,15.5-.03,4.92-.5,4.22-6.92,6.24-10.28,1.19,3.08,1.27,6.85,3.39,9.46,5.62,1.47,11.61.79,17.36.55,5.11-.14,5.28-6.45,7.32-9.89,1.09,3.07,1.2,6.82,3.32,9.37,4.27,1.68,9.04.86,13.53.99,4.54-.15,10.46.14,12.99-4.5,2.12-4.53,2.15-9.85,1.36-14.71-.75-4.36-5.6-5.93-9.47-5.86-5.89.05-11.95-.69-17.7.7-3.03,2.27-2.81,6.82-4.09,10.14-1.35-3.36-1.52-7.51-4.01-10.21-5.7-1.59-11.83-.92-17.67-.54-5.08.13-4.66,6.29-5.56,9.86-.43.13-1.3.36-1.74.48-1.06-3.52-.46-9.76-5.42-10.11-6.04-.44-12.39-1.15-18.29.48-2.69,2.51-2.73,6.8-4.22,10.08-1.46-3.58-.35-10.18-5.43-10.74-6.12-.47-12.53-1.01-18.52.51-2.61,2.67-2.77,6.9-4.12,10.29-1.24-3.35-.9-7.98-4.01-10.22-6.34-1.61-13.08-.97-19.55-.6-5.24.19-7.94,5.69-7.68,10.37M189.31,255.93c-4.78.61-5.57,6.05-5.4,9.95,0,4.91.22,11.57,5.5,13.82,5.72,1.33,11.76.85,17.58.3,4.91-.41,4.54-6.68,7-9.87,1.36,3.22.63,8.97,5.07,9.76,5.56.85,11.3,1,16.88.23,4.34-.67,3.97-5.93,4.68-9.21.44,0,1.34-.05,1.8-.07,1.07,3.05.5,8.35,4.61,9.04,5.31.74,10.72.58,16.06.15,5.05-.22,5.26-6.45,7.27-9.9,1.49,3.33.8,9.38,5.44,10,5.59.69,11.36.85,16.93-.14,4.18-.89,3.73-6.11,4.7-9.31.39.16,1.16.5,1.54.67,1,3.03.87,8.06,5.02,8.44,6.29.63,12.87,1.2,19.07-.29,6.07-2.84,5.11-10.95,4.84-16.49.07-4.71-4.46-7.61-8.76-7.61-5.77-.18-11.93-1.16-17.47.8-2.19,2.83-2.13,6.84-3.18,10.2-1.54-3.31-2.15-7.2-4.47-10.07-6.65-1.49-13.88-1.45-20.59-.33-2.1,2.72-2.54,6.28-3.48,9.49-1.27-3.51-1.02-9.68-5.89-10.14-5.4-.52-10.88-.44-16.26.2-5,.42-4.31,6.69-5.34,10.25-.44-.12-1.33-.35-1.78-.46-.77-2.95-.56-6.57-2.79-8.88-4.22-1.7-8.96-.96-13.4-1.2-2.68.21-5.95-.4-8.08,1.58-1.62,2.91-2,6.32-2.9,9.5-1.36-3.38-.96-8.18-4.07-10.41-6.58-1.31-13.51-.8-20.14,0M191.06,283.69c-4.84,1.27-6.17,6.98-5.68,11.36.4,4.37.64,10.34,5.49,12.19,5.49,1.61,11.44,1.61,17.09.91,4.01-.69,3.93-5.6,5-8.65.29-.18.86-.54,1.14-.72.96,3.43.88,9.24,5.71,9.31,5.92.29,12.21.97,17.9-.98,2.34-2.35,2.49-6.13,3.73-9.11,2.14,3.48,1.9,10.13,7.2,10.24,5.12.44,10.32.51,15.44,0,4.86-.35,4.42-6.51,5.69-9.92,1.17,2.85,1.5,6.27,3.45,8.68,5.59,2.1,11.87,1.41,17.73.96,5.02-.2,5.64-6.06,7.16-9.7,1.53,3.55,1.37,9.94,6.5,10.03,5.44.37,11.16.74,16.43-.92,5.12-2.23,5.71-8.58,5.82-13.45.31-4.14-1.59-9.22-6.02-10.25-5.32-.69-10.75-.48-16.07.05-5.23.38-4.74,7.02-6.57,10.65-1.66-3.94-1.2-11.2-7.04-11.18-5.86-.22-12.01-.9-17.67.82-2.11,2.88-2.06,6.88-3.1,10.25-1.3-3.2-2.07-6.63-3.76-9.65-5.95-2.14-12.62-1.28-18.83-1-4.88.29-4.72,6.32-5.91,9.82-1.51-3.91-2.17-10.4-7.67-10.24-5.67-.11-11.78-.85-17.1,1.4-1.73,3.1-2.42,6.64-3.82,9.88-1.76-3.59-.99-10.44-6.19-10.86-5.32-.48-10.77-.85-16.05.1M188.07,317.28c-1.08,5.78-2.43,13.71,3.12,17.68,4.89,2.2,10.6,1.4,15.8.97,4.96-.19,4.38-6.31,6.04-9.64,3.46,1.89,1.18,8.08,5.29,9.53,5.47,1.29,11.24.99,16.8.49,4.9-.39,4.92-6.41,6.76-9.86,1.32,3.02,1.43,7.28,4.55,9.12,5.43,1.26,11.14.71,16.67.44,5.32.1,5.32-6.34,7.19-9.9,1.5,3.58,1.24,9.88,6.35,10.18,5.33.55,10.81.7,16.11-.26,4.32-1.03,3.68-6.62,5.07-9.89,1.7,2.82,2.1,6.5,4.24,8.96,5.52,1.82,11.75,1.68,17.42.59,6-2.13,5.67-9.61,5.38-14.81.1-4.18-2.41-8.69-6.86-9.27-5.37-.67-11.16-1.28-16.32.58-2.21,2.76-2.26,6.73-3.34,10.03-1.75-3.61-1.29-10.05-6.4-10.53-6.01-.48-12.36-1.1-18.21.61-2.38,2.62-2.32,6.62-3.36,9.89-1.85-3.86-1.37-11.05-7.17-10.92-5.12-.34-10.3-.44-15.38.22-5.15.62-4.28,7.24-5.8,10.86-1.7-3.16-2.01-7.05-4.13-9.89-5.77-1.91-12.15-1.12-18.15-.98-5.25.17-4.52,6.75-5.34,10.39-.41-.14-1.25-.42-1.67-.57-.56-4.05-.8-10.42-6.46-10.09-6.09.03-16.27-1.76-18.17,6.08M189.25,345.38c-.67,5.84-2.03,13.95,3.67,17.78,4.6,2.08,10,1.47,14.85.69,4.15-.48,4.13-5.37,5.11-8.46.34-.16,1.01-.49,1.36-.66.91,3.16.31,8.66,4.64,9.24,5.59.57,11.29.56,16.87-.13,4.59-.69,4.1-6.62,5.72-9.91,2.2,3.29,1.46,9.62,6.33,10.23,5.38.69,10.87.69,16.26.14,4.96-.41,4.33-6.74,5.79-10.16,2.19,3.3,1.7,9.75,6.79,9.84,5.39.39,10.84.59,16.21-.02,4.41-.69,3.82-6.33,4.87-9.57,1.6,3.94,2.12,10.42,7.78,10.11,6.04.41,15.69.68,17.04-7.06.65-5.6,2.76-13.95-3.4-17.25-5.36-1.54-11.33-1.39-16.7-.02-2.8,2.55-2.72,6.98-4.18,10.33-1.79-3.28-1.3-7.88-4.18-10.4-5.58-1.83-11.71-1.18-17.48-.78-5.56.38-4.84,7.25-6.27,11.13-1.5-3.18-1.77-6.97-3.7-9.87-4.76-1.97-10.15-1.12-15.18-1.26-2.34.32-6.04-.3-6.91,2.59-.97,2.95-1.79,5.98-3.23,8.76-1.54-3.87-.61-10.93-6.22-11.34-5.79-.41-11.89-.97-17.51.74-2.93,2.38-2.91,6.83-4.26,10.18-1.26-4.11-1.15-11.15-7.14-10.82-5.81-.24-15.33-1.6-16.97,5.96M190.8,373.06c-.42,5.32-.75,11.31,2.19,16.01,3.62,4.14,10.01,3.68,14.97,3.03,4.26-.76,3.75-5.98,4.56-9.21.46-.05,1.38-.15,1.84-.2.92,3.39.56,9.29,5.34,9.55,6.09.34,12.48.86,18.4-.83,2.35-2.26,2.6-6.01,3.93-8.94,1.41,3.28,1.04,9.23,5.77,9.53,6.01.4,12.43,1.25,18.24-.65,2.15-2.68,2.76-6.31,4.32-9.36,1.45,3.38.53,9.64,5.4,10.1,5.35.63,10.81.61,16.16-.03,4.58-.35,4.31-6.01,5.4-9.3.47.03,1.41.1,1.88.13.86,2.85.45,6.81,3.22,8.64,4.46,1.49,9.46,1.19,13.97.02,4.77-1.59,5.45-7.43,5.57-11.73.14-4.39-.58-10.24-5.4-11.88-4.79-1.23-10.26-1.72-14.9.23-2.14,2.4-1.86,6.09-2.58,9.11-.44.14-1.32.42-1.77.56-.91-3.43,0-9.33-4.61-10.12-5.32-.72-10.73-.51-16.07-.12-5.56.14-4.53,7.2-6.89,10.74-1.18-3.41-.98-7.58-3.44-10.38-4.78-1.48-9.9-.77-14.81-.88-2.35.25-5.36-.22-6.99,1.86-1.5,2.82-1.75,6.11-2.5,9.18-1.71-3.57-.98-10.05-6.06-10.54-5.61-.53-11.33-.6-16.91.17-4.45.88-3.67,6.6-4.6,9.97-.5,0-1.52,0-2.02,0-.6-2.92-.57-6.16-2.19-8.74-3.42-2.3-7.92-1.76-11.84-1.66-3.38.06-7.27,2.02-7.6,5.74M196.6,396.27c-3.84,1.42-4.15,6.05-4.29,9.54,0,4.26-.25,9.47,3.38,12.48,3.55,2.81,8.66,2.57,12.8,1.37,3.47-1.12,3.3-5.48,4.33-8.35.37-.14,1.1-.43,1.47-.57,1,3.31.86,8.98,5.56,9.1,6.01.41,12.31,1.14,18.21-.42,2.44-2.37,2.08-6.5,3.3-9.56,1.84,2.97,1.86,7.08,4.29,9.58,5.89,1.7,12.25.89,18.29.47,4.94-.28,4.54-6.5,6.41-9.85,1.57,3.54.97,10.17,6.28,10.14,5.25.41,10.65.58,15.82-.58,4.11-1.02,4.23-5.98,5.45-9.24,1.77,3.48,2.01,9.25,6.84,9.71,4.83.84,12.35,1.03,13.86-4.94.98-5.4,1.97-11.64-.86-16.65-3.99-4.15-10.95-4.08-16.04-2.3-2.39,2.54-2.35,6.62-3.47,9.84-1.46-3.5-.83-9.46-5.52-10.3-5.58-.75-11.29-.69-16.88-.1-4.47.59-3.9,6.22-4.82,9.51-.41.18-1.21.53-1.6.71-.83-3.35.15-8.59-3.77-10.12-5.54-1.04-11.28-.65-16.85-.11-5.63.35-4.76,7.44-7.42,10.98-1.64-3.55-.67-10-5.62-10.79-5.3-.77-10.71-.9-16.04-.48-5.34.43-4.67,7.2-6.35,10.93-1.08-3.3-.97-7.35-3.42-9.98-4.07-2.08-9.14-1.47-13.34-.04M194.95,427.55c-1.47,4.4-.7,9.23.23,13.67,1.63,6.56,10.78,9.49,16.03,5.45,1.05-2.48.98-5.25,1.33-7.87.42.03,1.24.08,1.66.11,1.1,3.53,1.7,9.07,6.46,9.27,5.63.3,11.54.58,16.96-1.21,2.5-2.12,3.11-5.77,4.61-8.62.97,2.83,1.52,5.91,3.21,8.42,3.55,2.04,7.92,1.42,11.87,1.68,3.26-.23,7.18.44,9.86-1.83,1.45-2.63,1.76-5.71,2.63-8.54,1.47,2.75,2.08,5.97,3.76,8.58,5.92,2.37,12.72,1.61,18.95,1.04,4.39-.43,4.09-5.76,5.08-8.95.33.14.99.41,1.33.55.64,2.58.47,5.66,2.15,7.8,5.71,3.46,15.12.83,16.26-6.38.91-5.24,2.55-12.49-2.42-16.19-4.08-1.92-9.51-2.04-13.4.37-1.67,2.67-1.76,6.01-2.86,8.94-3.47-1.88-1.37-8.78-6.04-10.04-6.19-.97-12.89-1.46-18.95.37-2.21,2.8-2.17,6.93-3.87,10.13-1.56-3.54-.86-10.07-5.9-10.62-5.6-.58-11.32-.81-16.89,0-4.58.98-3.78,6.91-5.03,10.37-1.5-3.66-.86-10.1-6.03-10.55-6.02-.41-12.33-.84-18.19.8-2.52,2.77-2.58,7.05-4.46,10.28-1.68-3.59-.77-9.77-5.53-10.92-4.41-1.02-10.61-.79-12.84,3.88M195.53,462.8c-.35,5.67,2.39,12.91,9.02,13.08,10.16.5,20.4.57,30.57.34,5.38.15,5.51-6.09,6.53-9.87,1.8,3.47,1.86,9.76,6.99,9.72,5.01.4,10.11.5,15.1-.29,4.38-.74,4.73-6.04,6.42-9.32.88,2.86,1.15,6.08,2.9,8.59,3.08,1.82,6.89,1.25,10.32,1.38,7.7-.38,15.43.2,23.12-.36,4.59-.26,9.75-3.25,9.79-8.38.26-5.32,1.39-13.17-4.53-15.86-7.36-1.96-15.08-.35-22.59-.52-5.07.36-10.47-.82-15.3,1.06-2.1,2.55-2.6,6.04-3.74,9.08-1.5-3.77-1.42-10.5-6.96-10.31-5.78-.19-11.91-.88-17.45,1.04-2.17,2.36-1.93,6.07-2.68,9.06-.46.12-1.4.36-1.86.47-1.27-3.61-.95-10.01-6.09-10.16-10.6-.54-21.27-.94-31.87-.39-5.77.21-8.04,6.72-7.69,11.63M204.57,479.73c-3.3.26-5.93,3.01-6.18,6.29-.78,6.08-.1,13.92,5.8,17.32,4.89,1.97,10.35.98,15.49,1.12,24.45-.09,48.89.02,73.35,0,5.1-.15,10.55.87,15.38-1.21,6.01-3.23,6.56-11.16,5.6-17.16-.59-4.06-4.57-6.61-8.47-6.67-10.27-.42-20.57-.14-30.85-.18-23.38.69-46.8-.9-70.13.48h0Z"/>
  <path class="uuid-880f09db-4f7f-43f4-85e7-0b2272db2984" d="M193,7.75c4.35-.69,8.78-.44,13.17-.46,35.72.08,71.44.05,107.16,0,5.07,0,10.93.65,14.22,5.03,5.35,6.76,3.84,15.9,4.12,23.91-.24,5.39.93,11.42-2.14,16.2-2.73,3.99-8.03,3.99-12.34,3.99-15.12-.31-30.25.35-45.37.02-27.24-.75-54.49.86-81.7-.48-4.13-.22-8.82-2.6-9-7.24-.7-8.97-.22-18.01-.29-26.99-.32-7.02,5.32-13.14,12.18-13.97h0Z"/>
  <path class="uuid-880f09db-4f7f-43f4-85e7-0b2272db2984" d="M185.82,60.28c6.66-1.49,13.62-.78,20.4-.75,5.52-.43,5.84,6.14,7.67,9.84,1.11-3.32.56-8.94,4.98-9.78,5.37-.78,10.86-.58,16.25-.14,5.34.14,4.7,7,6.75,10.53,1.4-3.14,1.87-6.78,3.89-9.59,5.57-1.62,11.59-1.05,17.33-.73,4.91.23,5.34,6.2,6.83,9.73,1.04-3.1,1.69-6.48,3.74-9.11,5.87-1.9,12.31-1.14,18.4-.78,4.75.22,4.44,6.08,5.43,9.45.41-.03,1.25-.09,1.68-.12.87-2.99.31-7.75,4.09-8.76,5.51-1.18,11.23-.59,16.84-.66,3.91-.02,8.9.69,10.44,4.91,1.62,4.85,1.69,10.38.03,15.24-1.98,4.88-8,4.89-12.43,5.03-5.46-.18-11.22.84-16.45-1.06-1.89-2.66-2.2-6.36-3.82-9.28-1.29,3.48-1.4,9.11-6.18,9.61-5.78.64-11.93,1.04-17.55-.72-2.58-2.08-3-5.8-4.22-8.73-1.34,3.46-1.41,9.12-6,9.82-5.33.77-10.8.74-16.12,0-4.94-.52-4.63-6.65-6.14-10.16-1.1,2.94-1.78,6.11-3.49,8.78-5.4,2.31-11.65,1.49-17.37,1.17-5.12-.16-5.61-6.26-7.23-9.89-1.36,3.16-1.53,7.29-4.23,9.6-6.37,1.66-13.13.84-19.64.67-4.33.03-8.56-3.06-8.72-7.62-.71-5.56-1.83-14.07,4.82-16.47h0Z"/>
  <path class="uuid-b73a780f-f260-4063-83c0-23b749d6da1f" d="M180.73,96.98c-.07-3.99,1.8-8.79,6.27-9.37,6.93-.77,14.02-.83,20.95,0,5.12.7,2.39,7.79,5.94,9.91,1.84-3.23,1.05-9.5,5.95-9.74,5.79-.41,11.79-.89,17.51.41,2.74,2.24,2.93,6.41,4.31,9.54,1.57-3.46,1.21-9.71,6.03-10.28,5.12-.61,10.34-.54,15.48-.15,5.48-.12,5.13,6.83,6.86,10.51,1.23-3.11,1.86-6.55,3.82-9.3,5.75-1.84,12.09-1,18.06-.69,4.61.15,4.36,5.85,5.45,9.09.45,0,1.37.03,1.82.05.82-3.25.02-8.94,4.56-9.44,7.19-.6,14.59-.85,21.74.31,5.63,1.5,6.39,8.22,6.12,13.12.13,4.4-1.55,9.9-6.54,10.73-6.69,1.09-13.57.79-20.3.34-5.15-.08-4.89-6.37-6.48-9.87-2.05,3.33-1.32,9.71-6.25,10.14-5.4.54-10.88.52-16.24-.14-4.84-.44-4.09-6.69-5.63-10.09-1.69,3.63-2.07,9.78-7.22,9.98-5.59.41-11.53,1.03-16.9-.85-2.36-2.44-2.98-6.08-4.39-9.1-1.83,3.51-1.31,10.14-6.55,10.25-5.12.46-10.31.49-15.41-.07-5.09-.29-4.63-6.64-6.03-10.17-1.73,3.47-1.44,9.95-6.54,10.08-6.93.14-14.13.87-20.89-.97-5.89-1.94-5.7-9.16-5.51-14.22h0Z"/>
  <path class="uuid-c1730b70-3c08-4999-85b1-d77229a3539e" d="M187.17,115.83c6.89-.57,13.88-.54,20.78-.04,4.29.54,3.66,5.98,4.56,9.1.45.03,1.37.08,1.82.11.98-3.18.41-8.51,4.55-9.41,5.36-.81,10.86-.69,16.25-.2,5.27.2,4.78,6.89,6.67,10.45,1.32-3.15,1.99-6.65,3.99-9.47,6.55-1.4,13.68-1.45,20.23,0,2.07,2.65,2.74,6.06,3.86,9.18,1.26-3.18,1.45-7.46,4.41-9.57,6.28-1.36,13.02-1.27,19.35-.17,3.27,1.95,3.09,6.69,4.44,9.93,1.23-3.06,2.05-6.36,3.98-9.08,6.04-2.13,12.72-.88,19.03-1.12,4.41-.27,9.65,1.81,10.32,6.74.86,5.92,1.68,15-5.48,17.29-6.93,1.61-14.23,1.08-21.28.72-4.69-.04-4.81-5.52-5.73-8.88-.34-.14-1.01-.44-1.35-.6-.9,3.26-1.07,8.16-5.31,8.78-5.95.91-12.37,1.4-18.18-.41-2.33-2.4-2.72-6.18-4.06-9.2-1.31,3.11-1.42,7.15-3.91,9.54-5.86,1.82-12.25,1.25-18.27.65-4.88-.43-4.65-6.47-6.06-9.95-1.25,2.99-1.67,6.68-4.04,8.98-5.4,1.76-11.31,1.1-16.9.84-5.52.11-5.25-6.71-7.59-10.22-1.68,3.47-1.16,9.91-6.25,10.2-6.78.49-13.73.9-20.45-.28-5.66-1.26-6.64-7.95-6.38-12.8,0-4.52,1.67-10.61,7.03-11.11h0Z"/>
  <path class="uuid-3be64140-b720-4387-b2a0-7dbf9f693771" d="M180.64,152.86c.1-4.26,2.53-8.99,7.24-9.3,7.11-.37,14.52-1.04,21.5.52,2.66,2.29,2.78,6.46,4.52,9.48,1.3-3.26.48-9.11,4.99-9.87,5.64-.68,11.4-.6,17.03.08,4.29.57,3.74,5.94,4.64,9.08.46.05,1.41.14,1.88.19.97-3.35.51-9.27,5.25-9.59,5.42-.55,10.94-.57,16.38-.06,4.84.44,4.5,6.66,5.83,10.14,1.27-3.17,1.68-7.19,4.51-9.39,5.68-1.37,11.72-.9,17.51-.41,4.93.42,4.62,6.64,6.15,10.12,1.79-3.58,1.28-10.26,6.55-10.44,6.4-.48,12.88-.5,19.28.07,8.61,1.25,8.36,12.28,7.18,18.81-1.19,5.95-8.09,6.32-12.94,5.98-5.5-.48-11.56,1.05-16.65-1.45-1.45-2.78-2.27-5.84-3.66-8.65-1.36,3.27-.71,8.91-5.12,9.84-5.29.97-10.76.83-16.08.28-5-.28-4.88-6.44-6.41-9.94-1.88,3.46-2.24,9.46-7.27,9.59-5.72.38-11.71,1.06-17.29-.46-2.48-2.39-2.65-6.44-3.95-9.55-1.47,3.18-1.63,7.41-4.38,9.75-5.95,1.38-12.28.94-18.3.25-4.45-.54-4.03-5.91-4.83-9.18-.34.18-1.02.53-1.36.71-1.03,3.04-.96,8-5.1,8.44-6.97.77-14.17.94-21.1-.25-6.65-1.35-6.62-9.49-6.03-14.8h0Z"/>
  <path class="uuid-3be64140-b720-4387-b2a0-7dbf9f693771" d="M185.7,172.13c6.95-1.52,14.25-.99,21.29-.44,5.43.33,4.78,7.04,6.31,10.79,1.57-3.34,1.64-7.62,4.16-10.38,5.7-1.51,11.8-1,17.66-.7,5.2.13,5.3,6.53,6.77,10.2,1.3-3.46.89-9.8,5.79-10.09,6.09-.2,12.41-.67,18.37.82,2.51,2.33,2.72,6.39,4.01,9.49,1.39-3.2,1.58-7.39,4.32-9.77,5.69-1.59,11.82-1.11,17.67-.64,4.93.46,4.56,6.78,6.05,10.3,1.69-3.47,1.49-9.9,6.53-10.05,7.16-.14,14.48-.8,21.57.39,7.25,2.87,6.16,12.56,4.55,18.68-1.53,5.46-7.91,5.91-12.61,5.85-5.45-.21-11.21.8-16.44-1.07-2.01-2.71-2.35-6.33-3.54-9.45-1.66,3.65-2.09,9.72-7.21,9.98-5.61.43-11.58,1.08-16.97-.78-2.43-2.39-2.73-6.23-4.11-9.27-1.66,3.46-.99,9.72-5.92,10.22-6.04.5-12.38.88-18.27-.74-2.51-2.32-2.69-6.34-3.98-9.42-1.71,3.55-1.64,9.78-6.73,10-5.28.59-10.68.77-15.93-.05-4.27-.69-3.82-5.97-4.74-9.16-.43.05-1.28.13-1.71.17-.97,3.13-.67,8.24-4.83,8.93-6.48.9-13.14.78-19.62.02-4.5-.52-7.6-4.71-7.38-9.13-.13-5.03-1.04-12.65,4.93-14.7h0Z"/>
  <path class="uuid-74624ed9-d539-42e8-b92a-ad95a9f8990e" d="M181.13,206.1c.29-5.24,6.12-6.95,10.51-6.78,6,.17,12.4-.99,18.12,1.22,2.36,2.59,2.6,6.49,3.84,9.69,1.21-3.35,1.25-7.54,3.88-10.13,6.44-1.38,13.41-1.21,19.86.04,2.74,2.28,2.96,6.47,4.41,9.61,1.71-3.65,1.44-10.39,6.9-10.25,5.85-.28,11.97-1.08,17.69.48,2.19,3.02,2.67,6.96,4.1,10.38,1.03-3.32.78-7.47,3.22-10.11,5.61-1.6,11.64-.82,17.41-.62,5.5.1,5.25,7.09,7.4,10.77,1.26-3.38.7-8.19,3.79-10.46,7.32-1.54,15.05-1.01,22.46-.31,5.44.72,6.43,7.05,6.65,11.53.42,4.76-.55,11.36-6.12,12.56-7.02.98-14.24.76-21.27.15-4.17-.37-4.11-5.34-5.12-8.38-.34-.21-1.01-.62-1.35-.82-.86,3.26-.26,8.74-4.64,9.47-6.1.66-12.49.97-18.47-.49-2.92-2.12-2.76-6.49-4.11-9.6-2.08,3.25-1.56,9.53-6.39,9.91-5.6.52-11.3.75-16.88,0-4.4-.85-3.64-6.59-5.05-9.8-1.78,2.75-1.84,6.23-3.37,9-5.87,2.33-12.6,1.38-18.78.97-5.06-.28-4.55-6.5-5.87-9.98-2.46,3.49-2.22,10.23-7.82,10.06-6.63.31-13.57.99-20-.97-6.67-2.74-5.55-11.33-5.02-17.14h0Z"/>
  <path class="uuid-e3f350ec-27a2-46b7-97be-7d92ef70e410" d="M182.09,237.9c-.26-4.68,2.44-10.18,7.68-10.38,6.48-.37,13.21-1.01,19.55.6,3.11,2.24,2.76,6.87,4.01,10.22,1.35-3.39,1.52-7.61,4.12-10.29,5.99-1.52,12.4-.98,18.52-.51,5.09.56,3.98,7.16,5.43,10.74,1.49-3.27,1.52-7.57,4.22-10.08,5.9-1.63,12.25-.93,18.29-.48,4.96.36,4.36,6.59,5.42,10.11.43-.13,1.3-.36,1.74-.48.9-3.57.48-9.74,5.56-9.86,5.84-.38,11.97-1.05,17.67.54,2.5,2.7,2.66,6.85,4.01,10.21,1.28-3.32,1.06-7.88,4.09-10.14,5.75-1.4,11.81-.66,17.7-.7,3.87-.07,8.72,1.5,9.47,5.86.79,4.85.76,10.18-1.36,14.71-2.53,4.63-8.45,4.34-12.99,4.5-4.49-.14-9.27.69-13.53-.99-2.12-2.55-2.23-6.3-3.32-9.37-2.04,3.45-2.21,9.75-7.32,9.89-5.75.24-11.75.92-17.36-.55-2.11-2.61-2.2-6.38-3.39-9.46-2.03,3.36-1.32,9.78-6.24,10.28-5.14.5-10.35.34-15.5.03-5.53.3-4.98-6.69-7.11-10.19-1.25,2.95-1.29,6.81-3.74,9.04-5.71,1.8-11.97,1.25-17.87.91-4.78-.14-4.6-5.85-5.46-9.24-.47.03-1.4.08-1.86.11-.84,3.19-.4,8.44-4.73,9.01-6.4.77-13,.79-19.36-.23-6-1.44-6.51-8.75-6.33-13.8h0Z"/>
  <path class="uuid-c1730b70-3c08-4999-85b1-d77229a3539e" d="M189.31,255.93c6.63-.8,13.56-1.31,20.14,0,3.12,2.23,2.71,7.04,4.07,10.41.9-3.18,1.27-6.58,2.9-9.5,2.13-1.98,5.4-1.37,8.08-1.58,4.44.24,9.18-.5,13.4,1.2,2.23,2.31,2.02,5.93,2.79,8.88.44.12,1.33.35,1.78.46,1.02-3.56.34-9.83,5.34-10.25,5.39-.65,10.87-.72,16.26-.2,4.86.46,4.61,6.63,5.89,10.14.95-3.2,1.38-6.77,3.48-9.49,6.71-1.12,13.94-1.16,20.59.33,2.32,2.87,2.92,6.76,4.47,10.07,1.04-3.36.98-7.37,3.18-10.2,5.54-1.96,11.7-.98,17.47-.8,4.3,0,8.83,2.91,8.76,7.61.27,5.54,1.24,13.66-4.84,16.49-6.2,1.49-12.78.92-19.07.29-4.15-.39-4.01-5.41-5.02-8.44-.39-.16-1.16-.5-1.54-.67-.97,3.2-.52,8.43-4.7,9.31-5.57.98-11.34.83-16.93.14-4.64-.62-3.96-6.67-5.44-10-2.01,3.46-2.22,9.68-7.27,9.9-5.34.42-10.75.59-16.06-.15-4.11-.69-3.54-5.99-4.61-9.04-.45.02-1.35.06-1.8.07-.71,3.28-.34,8.54-4.68,9.21-5.58.77-11.32.62-16.88-.23-4.44-.79-3.71-6.53-5.07-9.76-2.46,3.19-2.08,9.46-7,9.87-5.82.55-11.86,1.03-17.58-.3-5.28-2.25-5.5-8.91-5.5-13.82-.16-3.9.63-9.34,5.4-9.95h0Z"/>
  <path class="uuid-74624ed9-d539-42e8-b92a-ad95a9f8990e" d="M191.06,283.69c5.28-.95,10.73-.58,16.05-.1,5.19.42,4.43,7.27,6.19,10.86,1.4-3.24,2.09-6.78,3.82-9.88,5.32-2.25,11.44-1.51,17.1-1.4,5.5-.16,6.17,6.33,7.67,10.24,1.19-3.49,1.02-9.53,5.91-9.82,6.21-.28,12.88-1.14,18.83,1,1.7,3.02,2.46,6.45,3.76,9.65,1.04-3.37.98-7.37,3.1-10.25,5.67-1.72,11.81-1.04,17.67-.82,5.84-.03,5.38,7.24,7.04,11.18,1.83-3.63,1.34-10.27,6.57-10.65,5.32-.53,10.75-.74,16.07-.05,4.43,1.03,6.33,6.11,6.02,10.25-.11,4.87-.69,11.22-5.82,13.45-5.27,1.66-10.98,1.28-16.43.92-5.13-.09-4.97-6.48-6.5-10.03-1.52,3.64-2.14,9.5-7.16,9.7-5.86.45-12.14,1.15-17.73-.96-1.95-2.4-2.28-5.83-3.45-8.68-1.27,3.41-.83,9.57-5.69,9.92-5.12.5-10.32.43-15.44,0-5.3-.11-5.06-6.76-7.2-10.24-1.24,2.98-1.39,6.76-3.73,9.11-5.69,1.95-11.99,1.27-17.9.98-4.84-.08-4.76-5.89-5.71-9.31-.28.18-.85.54-1.14.72-1.07,3.05-.99,7.96-5,8.65-5.66.7-11.6.7-17.09-.91-4.85-1.85-5.1-7.82-5.49-12.19-.48-4.38.84-10.09,5.68-11.36h0Z"/>
  <path class="uuid-c1730b70-3c08-4999-85b1-d77229a3539e" d="M188.07,317.28c1.9-7.84,12.08-6.05,18.17-6.08,5.66-.34,5.9,6.03,6.46,10.09.42.14,1.25.42,1.67.57.82-3.65.09-10.22,5.34-10.39,6-.14,12.38-.93,18.15.98,2.12,2.85,2.43,6.74,4.13,9.89,1.52-3.62.65-10.24,5.8-10.86,5.09-.67,10.27-.56,15.38-.22,5.8-.14,5.32,7.06,7.17,10.92,1.04-3.27.97-7.28,3.36-9.89,5.85-1.71,12.2-1.09,18.21-.61,5.11.48,4.65,6.92,6.4,10.53,1.08-3.3,1.13-7.27,3.34-10.03,5.16-1.86,10.95-1.25,16.32-.58,4.45.58,6.96,5.09,6.86,9.27.3,5.2.63,12.68-5.38,14.81-5.67,1.09-11.9,1.24-17.42-.59-2.13-2.46-2.54-6.14-4.24-8.96-1.39,3.27-.74,8.86-5.07,9.89-5.3.97-10.78.81-16.11.26-5.12-.3-4.85-6.6-6.35-10.18-1.87,3.56-1.87,10-7.19,9.9-5.53.27-11.23.82-16.67-.44-3.12-1.84-3.22-6.1-4.55-9.12-1.83,3.46-1.85,9.48-6.76,9.86-5.56.5-11.33.8-16.8-.49-4.11-1.45-1.83-7.63-5.29-9.53-1.66,3.33-1.08,9.45-6.04,9.64-5.2.43-10.91,1.24-15.8-.97-5.55-3.97-4.2-11.9-3.12-17.68Z"/>
  <path class="uuid-b73a780f-f260-4063-83c0-23b749d6da1f" d="M189.25,345.38c1.64-7.57,11.16-6.21,16.97-5.96,5.99-.33,5.88,6.71,7.14,10.82,1.35-3.35,1.32-7.8,4.26-10.18,5.62-1.71,11.72-1.15,17.51-.74,5.61.41,4.67,7.47,6.22,11.34,1.45-2.78,2.26-5.81,3.23-8.76.87-2.89,4.57-2.27,6.91-2.59,5.03.14,10.42-.7,15.18,1.26,1.93,2.91,2.2,6.69,3.7,9.87,1.44-3.88.71-10.75,6.27-11.13,5.77-.4,11.9-1.05,17.48.78,2.88,2.53,2.39,7.12,4.18,10.4,1.46-3.35,1.38-7.78,4.18-10.33,5.37-1.37,11.34-1.52,16.7.02,6.16,3.3,4.04,11.65,3.4,17.25-1.35,7.74-11,7.48-17.04,7.06-5.66.31-6.18-6.18-7.78-10.11-1.05,3.24-.46,8.89-4.87,9.57-5.38.61-10.83.41-16.21.02-5.1-.1-4.6-6.54-6.79-9.84-1.46,3.43-.83,9.76-5.79,10.16-5.39.55-10.89.54-16.26-.14-4.87-.61-4.13-6.94-6.33-10.23-1.62,3.29-1.13,9.22-5.72,9.91-5.58.69-11.28.69-16.87.13-4.33-.58-3.74-6.08-4.64-9.24-.35.16-1.02.49-1.36.66-.97,3.1-.96,7.98-5.11,8.46-4.85.78-10.25,1.39-14.85-.69-5.69-3.83-4.33-11.94-3.67-17.78h0Z"/>
  <path class="uuid-4fbf047e-2b79-4e4f-8683-325fbec33001" d="M190.8,373.06c.33-3.73,4.22-5.68,7.6-5.74,3.92-.1,8.43-.64,11.84,1.66,1.62,2.59,1.59,5.82,2.19,8.74.5,0,1.52,0,2.02,0,.94-3.37.15-9.09,4.6-9.97,5.58-.77,11.3-.7,16.91-.17,5.08.49,4.35,6.97,6.06,10.54.75-3.07,1-6.36,2.5-9.18,1.63-2.08,4.64-1.61,6.99-1.86,4.91.11,10.04-.6,14.81.88,2.45,2.8,2.26,6.97,3.44,10.38,2.36-3.54,1.33-10.61,6.89-10.74,5.34-.4,10.75-.61,16.07.12,4.62.79,3.71,6.7,4.61,10.12.44-.14,1.32-.42,1.77-.56.71-3.02.43-6.71,2.58-9.11,4.64-1.95,10.11-1.46,14.9-.23,4.83,1.64,5.54,7.49,5.4,11.88-.12,4.29-.8,10.13-5.57,11.73-4.51,1.17-9.51,1.47-13.97-.02-2.77-1.82-2.36-5.79-3.22-8.64-.47-.03-1.41-.1-1.88-.13-1.09,3.29-.82,8.96-5.4,9.3-5.35.64-10.81.66-16.16.03-4.87-.45-3.96-6.72-5.4-10.1-1.56,3.05-2.17,6.68-4.32,9.36-5.81,1.89-12.23,1.04-18.24.65-4.73-.3-4.36-6.24-5.77-9.53-1.33,2.92-1.57,6.68-3.93,8.94-5.93,1.69-12.31,1.17-18.4.83-4.78-.26-4.42-6.17-5.34-9.55-.46.05-1.38.15-1.84.2-.81,3.22-.31,8.44-4.56,9.21-4.96.65-11.35,1.11-14.97-3.03-2.94-4.7-2.62-10.69-2.19-16.01h0Z"/>
  <path class="uuid-db289d10-99be-4eea-a477-303f341fdaaf" d="M196.6,396.27c4.2-1.43,9.27-2.04,13.34.04,2.45,2.63,2.34,6.68,3.42,9.98,1.68-3.73,1.01-10.5,6.35-10.93,5.33-.41,10.74-.29,16.04.48,4.95.79,3.98,7.24,5.62,10.79,2.66-3.54,1.8-10.64,7.42-10.98,5.57-.54,11.31-.94,16.85.11,3.93,1.53,2.94,6.78,3.77,10.12.4-.18,1.2-.53,1.6-.71.92-3.29.35-8.92,4.82-9.51,5.59-.59,11.3-.66,16.88.1,4.69.84,4.06,6.79,5.52,10.3,1.12-3.22,1.08-7.31,3.47-9.84,5.09-1.79,12.05-1.85,16.04,2.3,2.83,5.01,1.84,11.24.86,16.65-1.51,5.97-9.03,5.78-13.86,4.94-4.84-.46-5.08-6.22-6.84-9.71-1.23,3.25-1.34,8.21-5.45,9.24-5.17,1.16-10.57.98-15.82.58-5.31.03-4.71-6.6-6.28-10.14-1.87,3.36-1.47,9.57-6.41,9.85-6.04.41-12.4,1.23-18.29-.47-2.42-2.5-2.44-6.61-4.29-9.58-1.23,3.07-.86,7.19-3.3,9.56-5.9,1.56-12.2.84-18.21.42-4.7-.13-4.56-5.79-5.56-9.1-.37.14-1.1.42-1.47.57-1.03,2.87-.86,7.23-4.33,8.35-4.14,1.2-9.25,1.44-12.8-1.37-3.63-3.01-3.37-8.22-3.38-12.48.14-3.48.44-8.12,4.29-9.54h0Z"/>
  <path class="uuid-4b92a769-1d99-4beb-804a-c1d45b69ad3d" d="M194.95,427.55c2.23-4.67,8.43-4.9,12.84-3.88,4.76,1.15,3.85,7.33,5.53,10.92,1.88-3.23,1.94-7.51,4.46-10.28,5.86-1.64,12.17-1.21,18.19-.8,5.17.45,4.54,6.89,6.03,10.55,1.24-3.46.44-9.38,5.03-10.37,5.57-.82,11.29-.59,16.89,0,5.04.55,4.33,7.07,5.9,10.62,1.7-3.2,1.66-7.33,3.87-10.13,6.05-1.82,12.76-1.34,18.95-.37,4.67,1.25,2.57,8.16,6.04,10.04,1.1-2.92,1.19-6.26,2.86-8.94,3.89-2.4,9.31-2.29,13.4-.37,4.97,3.7,3.33,10.94,2.42,16.19-1.14,7.21-10.55,9.84-16.26,6.38-1.68-2.14-1.52-5.22-2.15-7.8-.34-.14-1-.42-1.33-.55-.98,3.18-.69,8.51-5.08,8.95-6.23.57-13.03,1.33-18.95-1.04-1.69-2.61-2.3-5.83-3.76-8.58-.88,2.83-1.19,5.91-2.63,8.54-2.68,2.28-6.6,1.6-9.86,1.83-3.95-.26-8.32.36-11.87-1.68-1.7-2.51-2.24-5.59-3.21-8.42-1.51,2.85-2.11,6.5-4.61,8.62-5.41,1.79-11.33,1.51-16.96,1.21-4.76-.19-5.36-5.73-6.46-9.27-.41-.03-1.24-.08-1.66-.11-.35,2.62-.28,5.39-1.33,7.87-5.25,4.03-14.4,1.11-16.03-5.45-.94-4.44-1.7-9.27-.23-13.67h0Z"/>
  <path class="uuid-52655a9b-625c-490d-bfe3-d6cb4578acaf" d="M195.53,462.8c-.35-4.91,1.92-11.42,7.69-11.63,10.6-.55,21.27-.15,31.87.39,5.14.15,4.82,6.55,6.09,10.16.46-.12,1.4-.36,1.86-.47.75-2.99.51-6.7,2.68-9.06,5.54-1.92,11.67-1.24,17.45-1.04,5.54-.19,5.46,6.53,6.96,10.31,1.15-3.04,1.64-6.53,3.74-9.08,4.83-1.88,10.23-.7,15.3-1.06,7.51.17,15.23-1.44,22.59.52,5.92,2.68,4.79,10.54,4.53,15.86-.04,5.12-5.19,8.12-9.79,8.38-7.69.56-15.42-.02-23.12.36-3.43-.13-7.24.44-10.32-1.38-1.75-2.51-2.02-5.73-2.9-8.59-1.69,3.28-2.04,8.58-6.42,9.32-4.99.79-10.1.69-15.1.29-5.12.04-5.19-6.24-6.99-9.72-1.02,3.78-1.16,10.03-6.53,9.87-10.17.23-20.41.16-30.57-.34-6.63-.16-9.37-7.4-9.02-13.08h0Z"/>
  <path class="uuid-880f09db-4f7f-43f4-85e7-0b2272db2984" d="M204.57,479.73c23.33-1.38,46.75.2,70.13-.48,10.28.04,20.58-.24,30.85.18,3.9.06,7.88,2.61,8.47,6.67.97,6,.42,13.93-5.6,17.16-4.84,2.08-10.29,1.05-15.38,1.21-24.46.02-48.9-.09-73.35,0-5.14-.14-10.6.85-15.49-1.12-5.9-3.41-6.58-11.24-5.8-17.32.25-3.28,2.88-6.03,6.18-6.29h0Z"/>
</svg>