<?xml version="1.0" encoding="UTF-8"?>
<svg xmlns="http://www.w3.org/2000/svg" viewBox="0 0 512 512">
  <defs>
    <style>
      .uuid-edd8f1fb-dd90-41c3-b1a5-9f4dae013a0b {
        mix-blend-mode: multiply;
        opacity: .45;
      }

      .uuid-edd8f1fb-dd90-41c3-b1a5-9f4dae013a0b, .uuid-12268954-c983-49d0-9124-28db7a55de07, .uuid-ed658058-3bde-459b-a06c-123a1138e363 {
        fill: #375e2e;
      }

      .uuid-2ae8842c-0e86-4a57-87af-36b63524fc25 {
        fill: #6fa23f;
      }

      .uuid-025cbd5a-f341-40fc-8339-a663c44f36b8 {
        isolation: isolate;
      }

      .uuid-ed658058-3bde-459b-a06c-123a1138e363 {
        mix-blend-mode: screen;
      }

      .uuid-c4112fd6-561f-451c-8a2b-44cbce78cdb6 {
        fill: #4d783f;
      }
    </style>
  </defs>
  <g class="uuid-025cbd5a-f341-40fc-8339-a663c44f36b8">
    <g id="uuid-2777baa3-49a9-4892-8a0b-361d6d754673" data-name="Ebene 1">
      <g>
        <g>
          <path class="uuid-2ae8842c-0e86-4a57-87af-36b63524fc25" d="M300.67,428.29c-3.26,6.09-6.86,11.96-9.79,18.24-2.94,6.32-5.2,12.88-7.53,19.44-2.42,6.79-4.89,13.58-6.97,20.48-.53,1.75-1.07,3.51-1.59,5.26.04-.19.08-.37.12-.56,1.26-5.49,2.97-10.86,4.35-16.32,1.34-5.31,2.42-10.65,4.15-15.86,1.72-5.18,3.8-10.2,5.87-15.25.29-.7-.85-.45-1.06.03-2.15,5.06-4.58,9.97-6.83,14.98,2.57-7.83,5.3-15.62,9.02-22.97,2.06-4.06,4.37-7.95,6.91-11.7.45-1.16.91-2.33,1.37-3.49-6.64,8.71-12.37,18.14-16.56,28.28-2.28,5.54-4.12,11.24-6.1,16.89-.43,1.22-.84,2.45-1.26,3.67.55-2.55,1.11-5.09,1.69-7.63,2.92-12.73,5.88-25.72,10.74-37.88,2.43-6.08,5.41-11.91,8.44-17.71-.91.91-1.79,1.85-2.64,2.81-2.23,4.05-4.48,8.09-6.54,12.22-2.94,5.9-5.41,11.96-7.49,18.22-2.52,7.59-4.53,15.36-6.32,23.18.06-1.07.14-2.13.19-3.2.32-7.43.25-14.86.07-22.29-.18-7.28-.34-14.7-1.24-21.94-.6-4.77-1.59-9.47-2.69-14.16-.74-2.03-1.51-4.04-2.29-6.06,1.19,6.17,2.1,12.37,2.44,18.66.4,7.27.18,14.58.28,21.85.19,14.79-.68,29.47-1.33,44.24-.1,2.28-.25,4.56-.41,6.83-.12.64-.23,1.28-.35,1.92,0-.84-.02-1.68-.03-2.52.82-8.35.91-16.76.67-25.2-.38-12.9-1.65-25.9-3.41-38.68-.73-5.3-1.69-10.57-2.85-15.8-.48-1.1-1.02-2.18-1.67-3.18-.14-.22-.3-.44-.46-.65,1.36,5.87,2.29,11.77,2.84,17.78.6,6.58.7,13.2,1.13,19.79.83,12.59,1.33,25.21.78,37.83-.12-2.63-.24-5.27-.28-7.9-.09-6.05.2-12.13-.1-18.17-.28-5.86-.99-11.92-2.13-17.68-.93-4.7-1.9-9.36-2.97-14,.72,3.94,1.2,7.93,1.53,11.93.54,6.48.73,12.98,1.01,19.47.3,6.99.63,13.95.53,20.96-.05,3.59-.22,7.18-.26,10.76-.04,3.62-.01,7.24-.03,10.85-.03,5.37-.15,10.75-.55,16.11.01,0,.03,0,.05,0,.98-.22,1.9-1,2.27-1.96.11.02.23.03.34.02.13.27.31.51.59.69.94.6,2.26.2,3.17-.57.08,1.23,1.2,1.4,2.31.98.56-.18,1.1-.49,1.49-.91,0,.05,0,.1.01.15.1.61.48.76.94.68,1.52-6.27,3.14-12.51,4.92-18.71,2.13-7.42,4.47-14.77,7.13-22.02,2.7-7.34,5.75-14.57,8.73-21.8,1.48-3.59,3-7.17,4.65-10.68,1.62-3.47,3.53-6.78,5.41-10.12.34-.6.67-1.21,1-1.82.66-1.29,1.32-2.58,2-3.86.72-1.46,1.41-2.94,2.03-4.45.39-.95.77-1.9,1.15-2.85-3.1,4.98-5.85,10.16-8.62,15.33Z"/>
          <path class="uuid-edd8f1fb-dd90-41c3-b1a5-9f4dae013a0b" d="M280.9,476.45c-2.78,5.72-4.56,11.77-6.71,17.75-.25.68-1.34.49-1.39-.21-.33-4.28-.46-8.6-.33-12.91-1.37,6.44-2.62,12.91-3.72,19.41-.14.82-1.34.8-1.45-.02-.73-5.76-.95-11.56-1.28-17.35-.22,3.81-.6,7.61-1.24,11.38-.13.79-1.42.82-1.45-.02-.21-5.24-.53-10.48-1-15.71-.13-1.48-.3-2.95-.45-4.43-.07,2.97-.18,5.93-.22,8.9-.04,3.62-.01,7.24-.03,10.85-.03,5.37-.15,10.75-.55,16.11.01,0,.03,0,.05,0,.98-.22,1.9-1,2.27-1.96.11.02.23.03.34.02.13.27.31.51.59.69.94.6,2.26.2,3.17-.57.08,1.23,1.2,1.4,2.31.98.56-.18,1.1-.49,1.49-.91,0,.05,0,.1.01.15.1.61.48.76.94.68,1.52-6.27,3.14-12.51,4.92-18.71,1.71-5.96,3.57-11.88,5.61-17.73-.65,1.2-1.29,2.4-1.88,3.62Z"/>
          <path class="uuid-ed658058-3bde-459b-a06c-123a1138e363" d="M268.22,497.42c.77-5.01,1.45-10.04,2.13-15.07.67-5,1.48-10,1.93-15.02.54-6.1.54-12.23.78-18.35,0-3.94-.05-7.89-.15-11.83-.18-7.28-.34-14.7-1.24-21.94-.6-4.77-1.59-9.47-2.69-14.16-.24-.66-.5-1.32-.75-1.99,1.14,5.62,2.17,11.26,2.5,17.01.24,4.15.15,8.32.13,12.48-.02,4.16-.08,8.32-.16,12.48-.15,8.4-.29,16.8-.62,25.2-.44,11.35-1.22,22.69-2.32,33.99.15-.94.32-1.87.46-2.81Z"/>
          <path class="uuid-ed658058-3bde-459b-a06c-123a1138e363" d="M283.23,428.27c-1.17,4.09-2.12,8.25-2.91,12.42-.7,3.68-1.37,7.37-2.04,11.05-.35,1.92-.66,3.85-.84,5.79,2.62-11.35,5.45-22.81,9.76-33.61,2.43-6.08,5.41-11.91,8.44-17.71-.91.91-1.79,1.85-2.64,2.81-2.23,4.05-4.48,8.09-6.54,12.22-1.15,2.32-2.22,4.66-3.23,7.03Z"/>
          <path class="uuid-c4112fd6-561f-451c-8a2b-44cbce78cdb6" d="M269.17,415.07c.21,4.83.2,9.68.2,14.53,0-1.43.04-2.86.04-4.28,0-3.42,0-6.83-.24-10.24Z"/>
        </g>
        <g>
          <path class="uuid-2ae8842c-0e86-4a57-87af-36b63524fc25" d="M250.77,421.07c-.49,6.89-1.38,13.72-1.49,20.64-.11,6.97.51,13.88,1.06,20.82.56,7.19,1.08,14.39,2,21.54.23,1.82.46,3.64.69,5.45-.04-.19-.08-.37-.12-.56-1.09-5.53-1.72-11.13-2.69-16.67-.94-5.4-2.14-10.71-2.68-16.17-.54-5.44-.69-10.86-.87-16.32-.02-.76-.96-.06-.95.47.1,5.5-.11,10.97-.12,16.47-.85-8.2-1.54-16.42-1.14-24.65.22-4.55.75-9.04,1.53-13.51-.06-1.25-.12-2.5-.18-3.74-2.51,10.66-3.89,21.61-3.57,32.58.18,5.99.82,11.95,1.33,17.91.11,1.29.23,2.58.35,3.87-.54-2.55-1.07-5.1-1.57-7.66-2.54-12.81-5.13-25.88-5.66-38.96-.27-6.55.07-13.08.48-19.62-.46,1.2-.88,2.42-1.27,3.64-.39,4.61-.79,9.21-.98,13.83-.28,6.59-.06,13.13.6,19.69.8,7.96,2.14,15.87,3.7,23.74-.38-1-.74-2-1.14-3-2.74-6.91-5.84-13.67-9.04-20.38-3.14-6.57-6.31-13.29-10.09-19.52-2.49-4.11-5.32-8-8.23-11.83-1.5-1.55-3.03-3.07-4.56-4.59,3.6,5.15,6.97,10.44,9.84,16.04,3.33,6.47,6.12,13.23,9.17,19.84,6.21,13.42,11.41,27.18,16.84,40.93.84,2.12,1.64,4.26,2.41,6.4.15.63.31,1.26.46,1.89-.35-.76-.7-1.52-1.05-2.29-2.66-7.96-6.01-15.68-9.68-23.28-5.61-11.62-12.08-22.97-18.9-33.92-2.83-4.54-5.86-8.96-9.05-13.26-.89-.81-1.82-1.57-2.82-2.22-.22-.14-.45-.27-.69-.41,3.64,4.8,6.9,9.81,9.85,15.07,3.23,5.76,6.03,11.76,9.11,17.6,5.89,11.16,11.51,22.48,16.15,34.21-1.18-2.35-2.37-4.71-3.48-7.1-2.55-5.49-4.77-11.15-7.51-16.55-2.65-5.24-5.77-10.48-9.16-15.27-2.76-3.91-5.56-7.77-8.43-11.57,2.27,3.31,4.33,6.75,6.27,10.26,3.14,5.69,5.97,11.55,8.87,17.36,3.13,6.26,6.27,12.48,9.04,18.91,1.42,3.3,2.73,6.64,4.15,9.93,1.44,3.32,2.94,6.61,4.4,9.92,2.16,4.92,4.25,9.88,6.07,14.93.01,0,.03-.02.04-.02.81-.61,1.32-1.69,1.28-2.72.11-.03.22-.07.32-.12.23.2.5.34.82.39,1.1.16,2.14-.74,2.66-1.82.57,1.09,1.67.79,2.51-.05.44-.39.8-.9.99-1.44.03.04.05.09.07.13.34.52.75.5,1.14.23-1.17-6.34-2.24-12.7-3.15-19.09-1.09-7.64-1.95-15.31-2.47-23.01-.53-7.81-.7-15.65-.93-23.47-.11-3.88-.18-7.77-.12-11.65.06-3.83.46-7.64.81-11.45.06-.69.12-1.38.17-2.07.07-1.45.15-2.89.25-4.34.06-1.63.09-3.26.04-4.89-.03-1.02-.07-2.05-.11-3.07-.8,5.81-1.19,11.66-1.61,17.51Z"/>
          <path class="uuid-edd8f1fb-dd90-41c3-b1a5-9f4dae013a0b" d="M252.39,473.1c-.2,6.36.65,12.61,1.12,18.94.05.72-1.02.99-1.36.38-2.05-3.77-3.93-7.66-5.57-11.65,1.38,6.44,2.87,12.86,4.53,19.23.21.8-.9,1.28-1.33.57-3.02-4.96-5.59-10.16-8.25-15.32,1.35,3.57,2.56,7.19,3.51,10.89.2.78-.96,1.33-1.33.57-2.33-4.7-4.76-9.36-7.33-13.93-.73-1.29-1.48-2.58-2.22-3.86,1.15,2.74,2.25,5.49,3.43,8.21,1.44,3.32,2.94,6.61,4.4,9.92,2.16,4.92,4.25,9.88,6.07,14.93.01,0,.03-.02.04-.02.81-.61,1.32-1.69,1.28-2.72.11-.03.22-.07.32-.12.23.2.5.34.82.39,1.1.16,2.14-.74,2.66-1.82.57,1.09,1.67.79,2.51-.05.44-.39.8-.9.99-1.44.03.04.05.09.07.13.34.52.75.5,1.14.23-1.17-6.34-2.24-12.7-3.15-19.09-.87-6.14-1.59-12.3-2.12-18.47-.11,1.36-.2,2.71-.24,4.08Z"/>
          <path class="uuid-ed658058-3bde-459b-a06c-123a1138e363" d="M249.37,497.42c-1.34-4.89-2.77-9.76-4.21-14.62-1.43-4.84-2.73-9.73-4.38-14.5-2-5.79-4.5-11.39-6.78-17.07-1.6-3.6-3.27-7.18-4.96-10.74-3.14-6.57-6.31-13.29-10.09-19.52-2.49-4.11-5.32-8-8.23-11.83-.49-.51-1-1-1.5-1.51,3.34,4.67,6.58,9.4,9.22,14.5,1.91,3.69,3.54,7.54,5.21,11.34,1.68,3.81,3.32,7.63,4.95,11.46,3.29,7.73,6.6,15.46,9.72,23.26,4.23,10.54,8.14,21.21,11.75,31.98-.25-.92-.47-1.84-.72-2.76Z"/>
          <path class="uuid-ed658058-3bde-459b-a06c-123a1138e363" d="M234.84,428.17c.6,4.21,1.43,8.39,2.41,12.52.87,3.64,1.76,7.29,2.65,10.92.46,1.89.97,3.78,1.6,5.63-2.24-11.43-4.34-23.04-4.81-34.67-.27-6.55.07-13.08.48-19.62-.46,1.2-.88,2.42-1.27,3.65-.39,4.61-.79,9.21-.98,13.83-.11,2.59-.12,5.16-.08,7.74Z"/>
          <path class="uuid-c4112fd6-561f-451c-8a2b-44cbce78cdb6" d="M216.62,421.85c2.17,4.32,4.14,8.76,6.11,13.18-.57-1.31-1.13-2.62-1.71-3.93-1.4-3.12-2.79-6.24-4.4-9.25Z"/>
        </g>
        <g>
          <path class="uuid-12268954-c983-49d0-9124-28db7a55de07" d="M283.96,407.13c-2.73,7.68-5.9,15.15-8.2,22.98-2.32,7.88-3.8,15.93-5.37,23.99-1.63,8.34-3.31,16.69-4.53,25.1-.31,2.14-.63,4.27-.93,6.41.01-.22.02-.45.04-.67.5-6.62,1.56-13.18,2.21-19.79.63-6.43.95-12.84,2.05-19.21,1.1-6.35,2.64-12.55,4.16-18.81.21-.87-1.08-.38-1.23.23-1.62,6.28-3.59,12.43-5.33,18.67,1.62-9.58,3.43-19.14,6.48-28.36,1.69-5.09,3.7-10.04,6-14.86.32-1.44.65-2.87.98-4.31-6.21,11.32-11.24,23.32-14.33,35.88-1.69,6.86-2.83,13.83-4.14,20.76-.28,1.5-.55,3-.82,4.5.2-3.07.39-6.13.63-9.19,1.16-15.36,2.34-31.01,5.87-46.04,1.76-7.52,4.21-14.84,6.73-22.13-.9,1.22-1.76,2.47-2.59,3.74-1.89,5.11-3.8,10.21-5.48,15.4-2.39,7.4-4.21,14.9-5.53,22.56-1.6,9.29-2.58,18.7-3.29,28.14-.11-1.25-.21-2.51-.35-3.76-.93-8.71-2.32-17.37-3.84-26-1.49-8.46-2.98-17.08-5.3-25.35-1.53-5.45-3.51-10.77-5.62-16.03-1.22-2.23-2.47-4.45-3.74-6.66,2.47,6.98,4.62,14.06,6.12,21.33,1.74,8.4,2.77,16.96,4.17,25.43,2.83,17.2,4.39,34.48,6.23,51.8.28,2.68.51,5.36.72,8.04-.03.77-.05,1.53-.07,2.3-.16-.98-.31-1.95-.47-2.93-.51-9.88-1.88-19.7-3.65-29.49-2.71-14.97-6.47-29.9-10.77-44.49-1.78-6.05-3.83-12.03-6.1-17.92-.75-1.2-1.57-2.36-2.51-3.42-.21-.23-.43-.45-.65-.68,2.62,6.6,4.74,13.32,6.44,20.22,1.86,7.56,3.14,15.26,4.8,22.87,3.18,14.53,5.98,29.16,7.56,43.96-.6-3.05-1.2-6.1-1.71-9.17-1.17-7.04-1.9-14.17-3.31-21.17-1.36-6.79-3.25-13.73-5.59-20.24-1.91-5.31-3.86-10.57-5.93-15.8,1.53,4.47,2.79,9.04,3.88,13.63,1.77,7.46,3.13,15,4.6,22.52,1.58,8.1,3.18,16.16,4.3,24.34.58,4.19,1,8.4,1.58,12.59.59,4.22,1.26,8.44,1.87,12.66.91,6.27,1.72,12.56,2.19,18.88.02,0,.04,0,.05-.02,1.11-.43,2.04-1.5,2.31-2.68.14,0,.27-.01.4-.03.2.29.46.54.81.7,1.2.53,2.67-.17,3.6-1.22.31,1.42,1.65,1.42,2.87.74.62-.3,1.19-.77,1.58-1.32.02.06.02.12.04.17.22.69.7.8,1.22.62.67-7.57,1.46-15.14,2.44-22.68,1.18-9.02,2.62-18.01,4.45-26.92,1.86-9.04,4.14-18,6.35-26.95,1.1-4.45,2.24-8.88,3.54-13.27,1.28-4.33,2.93-8.53,4.53-12.75.29-.76.57-1.53.85-2.29.54-1.62,1.09-3.24,1.66-4.85.58-1.83,1.13-3.67,1.59-5.54.29-1.17.56-2.35.84-3.52-2.74,6.35-5.03,12.87-7.35,19.38Z"/>
          <path class="uuid-edd8f1fb-dd90-41c3-b1a5-9f4dae013a0b" d="M269.38,466.75c-2.24,7.16-3.24,14.53-4.7,21.86-.17.84-1.48.81-1.66,0-1.14-4.93-2.05-9.95-2.66-14.99-.47,7.75-.79,15.51-.92,23.28-.02.98-1.43,1.17-1.69.23-1.87-6.58-3.14-13.3-4.54-20,.41,4.48.64,8.97.55,13.48-.02.94-1.51,1.21-1.69.23-1.16-6.08-2.46-12.13-3.93-18.14-.42-1.7-.87-3.39-1.31-5.09.44,3.47.83,6.95,1.31,10.41.59,4.23,1.26,8.44,1.87,12.66.91,6.27,1.72,12.56,2.19,18.88.02,0,.04,0,.05-.02,1.11-.43,2.04-1.5,2.31-2.69.14,0,.27-.01.4-.03.2.29.46.54.81.7,1.2.53,2.67-.17,3.6-1.22.31,1.42,1.65,1.42,2.87.74.62-.3,1.19-.77,1.58-1.32.02.06.03.12.04.17.22.69.7.8,1.22.62.67-7.57,1.46-15.14,2.44-22.68.95-7.25,2.07-14.47,3.42-21.65-.55,1.51-1.08,3.02-1.56,4.55Z"/>
          <path class="uuid-ed658058-3bde-459b-a06c-123a1138e363" d="M258.28,493.42c.02-5.98-.07-11.96-.17-17.94-.1-5.95-.03-11.92-.4-17.85-.45-7.2-1.52-14.35-2.32-21.52-.68-4.6-1.45-9.19-2.25-13.76-1.49-8.46-2.98-17.08-5.3-25.35-1.53-5.45-3.51-10.77-5.62-16.03-.4-.73-.82-1.45-1.23-2.18,2.32,6.35,4.51,12.75,5.9,19.39,1.01,4.79,1.64,9.68,2.34,14.52.71,4.86,1.37,9.72,2.01,14.58,1.3,9.82,2.62,19.64,3.71,29.48,1.48,13.31,2.56,26.66,3.26,40.03.01-1.12.04-2.24.05-3.36Z"/>
          <path class="uuid-ed658058-3bde-459b-a06c-123a1138e363" d="M263.62,410.17c-.65,4.97-1.02,9.98-1.21,14.99-.17,4.41-.3,8.83-.44,13.24-.07,2.3-.09,4.6.04,6.9,1.06-13.7,2.34-27.55,5.47-40.9,1.76-7.52,4.21-14.84,6.73-22.13-.9,1.22-1.76,2.47-2.59,3.74-1.89,5.11-3.8,10.21-5.48,15.4-.94,2.9-1.76,5.83-2.53,8.77Z"/>
          <path class="uuid-c4112fd6-561f-451c-8a2b-44cbce78cdb6" d="M244.92,397.25c1.1,5.6,1.94,11.25,2.79,16.9-.24-1.67-.46-3.34-.71-5-.6-3.98-1.21-7.97-2.08-11.9Z"/>
        </g>
      </g>
    </g>
  </g>
</svg>