<?xml version="1.0" encoding="UTF-8"?>
<svg xmlns="http://www.w3.org/2000/svg" viewBox="0 0 512 512">
  <defs>
    <style>
      .uuid-8c6d6a78-a456-4641-b4d8-46978afb0ce9 {
        fill: #532523;
      }

      .uuid-622248af-99e0-47bd-8ffd-3accfd639a99, .uuid-10a2e6ec-4728-44b7-82fd-53523d6fcaca {
        fill: #93634f;
      }

      .uuid-2566e798-9301-4e5c-8fb9-78e259991fd7 {
        fill: #9d7a6d;
        opacity: .55;
      }

      .uuid-2566e798-9301-4e5c-8fb9-78e259991fd7, .uuid-39a1aaea-8f35-4ef3-b33d-49d267fb2af4 {
        mix-blend-mode: multiply;
      }

      .uuid-10a2e6ec-4728-44b7-82fd-53523d6fcaca {
        mix-blend-mode: screen;
      }

      .uuid-052104e7-4910-4d93-b6a6-bc157468972b {
        isolation: isolate;
      }

      .uuid-39a1aaea-8f35-4ef3-b33d-49d267fb2af4, .uuid-0943bc29-768d-498c-b53f-3fddb174890c {
        fill: #e9d2a3;
      }
    </style>
  </defs>
  <g class="uuid-052104e7-4910-4d93-b6a6-bc157468972b">
    <g id="uuid-b79f6507-d7a2-4d9f-b73f-ab6d05636e53" data-name="Ebene 1">
      <g>
        <g>
          <path class="uuid-8c6d6a78-a456-4641-b4d8-46978afb0ce9" d="M318.79,502.15c-.37-.26-.7-.26-1.16-.39-.66-.18-1.29-.45-1.96-.61-.59-.14-1.2-.21-1.8-.33-1-.2-1.86-.64-2.81-.96-1.15-.39-2.37-.4-3.55-.62-1.74-.32-3.29-1.5-4.26-2.94-1.46-2.17-2.98-4.3-4.63-6.34-.97-1.2-1.71-2.47-2.53-3.76-.78-1.22-1.72-1.93-2.85-2.79-2.52-1.91-2.86-5.39-3.4-8.29-.53-2.88-1.17-5.75-1.7-8.64-1.12-6.05-2.04-12.25-2.48-18.39-.39-5.42-.79-10.82-1.03-16.25.41-2,.28-4.14-.07-6.1-.2-1.12-.58-2.36-1.25-3.3-.75-1.05-2-1.61-3.14-2.14-2.69-1.25-5.62-2.37-8.49-3.14-2.85-.76-5.79-1.22-8.7-1.73-3-.53-6.02-1.16-9.05-1.42-3.19-.28-6.49-.77-9.7-.64-3.49.14-7.01.84-10.35,1.85-3.15.95-5.93,2.7-8.72,4.42-1.19.73-2.35,1.48-3.45,2.33-.93.71-2.14,1.6-2.49,2.77-.38,1.3.1,2.77.18,4.07.03.42.04.83.06,1.25-.07,1.44-.13,2.88-.17,4.33-.03,1.04-.21,2.08-.11,3.1.1,1.03.06,2.09.06,3.13,0,1.03.2,1.94.4,2.94.05.23.08.46.11.68.04,1.19.11,2.38.19,3.58.34,5.42-.47,10.74-.85,16.14-.37,5.39-.16,10.8-1.12,16.12-.22,1.22-.32,2.44-.5,3.66-.19,1.36-.89,2.24-1.53,3.4-.56,1.02-.88,2.15-1.44,3.16-.74,1.32-1.95,1.85-3.2,2.56-1.98,1.12-4.01,1.98-5.66,3.56-.13.2-.27.39-.41.59-.52.72-1.11,1.37-1.79,1.95-.25.21-.51.41-.78.6-1.09,1.16-2.31,2.15-3.54,3.2-.65.55-1.16,1.21-1.8,1.76-.32.28-.63.69-.97.94-.33.25-.74.4-1.08.64-.82.58-2.38,1.61-2.12,2.76.03.14.1.26.27.27,1.62.07,3.16-1.17,4.57-1.85,1.94-.93,3.82-1.04,5.95-.98,2.12.06,4.22.4,6.34.45,2.08.05,4.19-.05,6.27-.11,1.74-.05,3.31-.36,4.94-.94,1.84-.65,3.82-1.7,5.82-1.47,1.79.2,3.29.64,5.06.05.17-.06.34-.13.5-.2,1.01,1.48,2.42,2.56,3.17,4.23.51,1.15.53,2.71,1.69,3.4.51.31,1.13.5,1.43-.16.24-.52-.03-1.65-.02-2.21,0-.88.02-1.76,0-2.64-.01-.77.02-1.78.2-2.54.02-.09.05-.17.07-.26.02.25.07.51.15.77.36,1.12,1.52,1.16,2.56,1.31,3.57.53,7.06,1.7,10.37,3.12,1.45.62,2.88,1.12,4.47,1.2,1.67.08,3.22-.35,4.84-.69,1.71-.35,3.42-.66,5.13-.95.86-.14,1.71-.23,2.58-.32.58-.06,1.22,0,1.79-.14.26-.07.7-.53.33-.75-1.15-.67-2.35-.89-3.56-1.38-1.24-.5-2.52-.93-3.75-1.48-.23-.11-.46-.22-.69-.34,1.65.35,3.28.84,4.94,1.04,3.72.44,7.52.47,11.22-.16,2.09-.36,4.14-.81,6.27-.98,2.1-.16,4.24.17,6.33.32,3.9.28,7.75,1.12,11.66.61,2.35-.31,4.7-.88,7.03-1.34,1.14-.23,2.26-.56,3.43-.67,1.11-.1,2.64-.6,3.72-.26.28.09.89-.43.56-.67Z"/>
          <path class="uuid-0943bc29-768d-498c-b53f-3fddb174890c" d="M220.14,425.29c.11-1.43,1.6-2.39,2.72-3.08.48-.29.86-.7,1.32-1.01.66-.44,1.37-.82,2.04-1.24,2.66-1.65,5.3-3.09,8.31-3.99,2.96-.89,6.16-1.46,9.24-1.59,2.92-.12,5.9.33,8.8.57,2.89.24,5.75.74,8.6,1.27,2.81.52,5.6,1.03,8.4,1.58,2.93.57,5.63,1.79,8.41,2.81,1.24.46,2.62.99,3.69,1.79,1.11.84,1.86,2.34,2.2,3.67.16.64.28,1.27.36,1.89-.03,1.16-.05,2.32-.07,3.48-.16.94-.44,1.88-.87,2.81-.35.77-.48,1.58-.66,2.4-.32,1.44-1.2,2.78-1.99,4.01-.68,1.05-1.27,2.24-2.22,3.06-1.18,1.01-2.44,1.53-3.93,1.93-2.88.77-5.84,1.17-8.77,1.7-3.05.55-6.46,1.27-9.51.35-2.57-.77-4.75-2.86-7.04-4.22-2.43-1.44-4.87-2.91-7.23-4.47-1.36-.9-2.61-1.89-3.92-2.85-1.21-.89-2.32-1.97-3.57-2.81-2.58-1.75-5.62-2.87-8.57-3.82-1.33-.43-2.71-.92-4.11-1.08-.35-.04-.9-.18-1.37-.13,0-.25,0-.49-.04-.74-.1-.76-.3-1.5-.25-2.28Z"/>
          <path class="uuid-622248af-99e0-47bd-8ffd-3accfd639a99" d="M313.77,502.34c-2.04.26-4.12.74-6.15,1.15-2.02.41-4.03.79-6.1.8-1.89,0-3.83-.33-5.71-.53-3.87-.41-7.71-.85-11.59-.38-3.92.48-7.63,1.52-11.62,1.14-1.11-.1-2.23-.11-3.34-.21-1.11-.1-2.15-.46-3.23-.69-1.02-.22-2.06-.35-3.09-.5-.4-.06-.79-.1-1.16-.2-.31-.31-.6-.65-.84-1.04-.15-.24-.28-.5-.41-.76-.05.18-.02.39.01.56.15.77.54,1.51.92,2.2.03,0,.06.02.09.02.43.38.89.72,1.39.99,1.35.75,2.84,1.19,4.27,1.76.79.32,1.59.55,2.36.83-.59.03-1.19.07-1.78.15-1.53.23-3.05.51-4.57.82-3.32.68-6.24,1.47-9.5.04-2.82-1.24-5.61-2.17-8.57-3.01-.63-.18-1.21-.32-1.87-.41-.68-.09-1.82-.05-2.41-.41-.14-.08-.25-.2-.34-.33-.54-.38-.86-1.07-1.11-1.65-.06-.13-.11-.26-.16-.4-1.1,2.38-.88,4.77-.82,7.35.01.41.12.96.08,1.36-.05.52.17.36-.31.17-.67-.26-.79-.98-.96-1.58-.36-1.25-.79-2.58-1.54-3.66-.77-.82-1.57-1.66-2.06-2.68-.08-.18-.15-.35-.21-.53-.02.02-.04.03-.07.05-.22-.44-.37-.9-.42-1.41-.17-1.54-.21-3-.15-4.55,0-.03,0-.06,0-.09-.02-.37-.04-.74-.03-1.12,0-.75.05-1.49,0-2.24-.05-.7-.14-1.4-.27-2.09-.04-.21-.08-.41-.13-.62-.03,2.82-.62,5.65-.65,8.48-.01,1.34.11,2.89.69,4.16-.58.25-1.21.4-1.91.39-1.6-.02-3.03-.65-4.66-.34-1.66.31-3.22,1.11-4.8,1.69-1.95.71-3.95.75-6.01.74-1.96-.01-3.9.16-5.86.04-1.84-.11-3.67-.38-5.51-.4-1.53-.02-3.18-.06-4.63.53-.77.31-1.52.72-2.25,1.09-.77.4-1.72,1.09-2.63,1.15.32-.58,1.62-1.45,1.91-1.61.65-.36.9-.7,1.46-1.2,1.27-1.13,2.52-2.29,3.79-3.45,0,0,0,0,0,0,1.39-1.25,2.69-2.59,3.94-4.01.89-1.01,1.84-1.92,3.05-2.52,1-.49,1.96-.95,2.91-1.53.88-.54,1.87-.87,2.65-1.58.81-.74,1.41-1.56,1.82-2.57.46-1.13.83-2.25,1.52-3.27.66-.99,1.02-1.92,1.25-3.1.5-2.64.99-5.32,1.23-8,.22-2.56.1-5.15.25-7.72.18-3,.35-5.99.59-8.98.22-2.73.51-5.42.46-8.17-.01-.67-.05-1.34-.09-2.01-.01-.71-.04-1.41-.05-2.13-.02-.89.01-1.76-.07-2.65-.07-.79-.24-1.56-.34-2.34-.02-2.94.19-5.85,0-8.79,0-.05,0-.11,0-.16,0-.18,0-.36-.02-.53.04-.9.08-1.8.02-2.7,0-.04,0-.08,0-.12.09-.04.21-.07.36-.08.57-.05,1.19.22,1.74.35.92.21,1.79.51,2.69.79,1.46.47,2.96.97,4.37,1.59,1.32.58,2.61,1.18,3.84,1.95,1.41.88,2.66,2.09,4.01,3.09,1.09.8,2.12,1.68,3.26,2.42,1.14.75,2.33,1.4,3.47,2.13,2.59,1.66,5.19,3.31,7.78,4.96,1.26.8,2.35,1.68,3.8,2.12,1.38.42,2.8.49,4.24.4,3.02-.18,6.11-.64,9.06-1.31,1.56-.35,3.14-.64,4.68-1.02,1.14-.28,2.62-.49,3.6-1.17,2.04-1.41,3.16-3.3,4.42-5.39.58-.95,1.22-1.97,1.51-3.05.12-.44.13-.91.17-1.36.07-.75.45-1.36.73-2.03,0,1.08-.01,2.17,0,3.25.01,3.34.32,6.65.54,9.98.42,6.29,1.21,12.64,2.31,18.85.52,2.94.93,5.91,1.53,8.84.55,2.69.68,5.8,2.17,8.19.78,1.26,2.01,1.61,3.1,2.49,1.25,1.01,1.89,2.49,2.77,3.79,1.66,2.46,3.73,4.64,5.32,7.15.77,1.22,1.45,2.15,2.66,2.99,1.25.88,2.39,1.1,3.87,1.31,1.04.15,1.94.32,2.92.7.72.28,1.41.53,2.18.68.8.15,1.57.3,2.35.51-.69.04-1.39.05-2.08.14Z"/>
          <path class="uuid-2566e798-9301-4e5c-8fb9-78e259991fd7" d="M262.94,504.9c-.49-.27-.96-.61-1.39-.99-.03,0-.06-.01-.09-.02-.38-.69-.77-1.42-.92-2.2-.03-.17-.06-.38-.01-.56.12.26.26.51.41.76.24.39.53.73.84,1.04.26.07.53.11.8.15-.3-.22-.58-.46-.85-.71-.71-.64-1.35-1.38-1.79-2.23-.23-.44-.4-.92-.57-1.39-.19-.55-.36-1.1-.52-1.66-.63-2.29-.98-4.64-1.25-7-.28-2.43-.46-4.88-.74-7.31-.25-2.17-.57-4.35-1.11-6.47-.03.22-.07.45-.1.67-.44,3.3-.7,6.62-.77,9.94-.07,3.29.04,6.59.29,9.87.12,1.57.29,3.13.41,4.7.11,1.31.26,2.69.94,3.85.59,1.01,1.56,1.82,2.52,2.47.62.41,1.27.77,1.94,1.11.74-.14,1.48-.3,2.25-.46,1.52-.31,3.04-.59,4.57-.82.59-.09,1.18-.13,1.78-.15-.78-.28-1.57-.51-2.36-.83-1.42-.58-2.92-1.02-4.27-1.76Z"/>
          <path class="uuid-2566e798-9301-4e5c-8fb9-78e259991fd7" d="M313.5,501.69c-.77-.14-1.45-.39-2.18-.68-.98-.38-1.88-.56-2.92-.7-1.49-.21-2.62-.44-3.87-1.31-1.21-.84-1.88-1.77-2.66-2.99-1.59-2.51-3.66-4.69-5.32-7.15-.88-1.3-1.52-2.78-2.77-3.79-1.09-.88-2.32-1.23-3.1-2.49-1.49-2.39-1.62-5.5-2.17-8.19-.6-2.93-1.01-5.9-1.53-8.84-1.1-6.21-1.88-12.56-2.31-18.85-.22-3.33-.53-6.64-.54-9.98,0-1.09,0-2.17,0-3.25-.28.67-.65,1.28-.73,2.03-.04.45-.05.92-.17,1.36-.29,1.08-.93,2.1-1.51,3.05-1.26,2.08-2.38,3.98-4.42,5.39-.98.68-2.46.89-3.6,1.17-1.55.38-3.13.67-4.68,1.02-2.95.67-6.04,1.12-9.06,1.31-1.44.09-2.86.01-4.24-.4-1.45-.44-2.55-1.32-3.8-2.12-2.6-1.65-5.2-3.3-7.78-4.96-1.15-.74-2.33-1.38-3.47-2.13-1.14-.74-2.17-1.62-3.26-2.42-1.35-.99-2.59-2.2-4.01-3.09-1.23-.77-2.52-1.37-3.84-1.95-1.2-.53-2.46-.97-3.71-1.37.81.52,1.63,1.03,2.44,1.55,1.4.9,2.8,1.8,4.14,2.78,1.29.95,2.53,1.99,3.74,3.04,2.54,2.2,4.97,4.53,7.4,6.86,2.29,2.19,4.52,4.46,7.3,6.03,2.61,1.47,5.51,2.3,8.5,2.42.07,0,.13.06.12.12-.01,2.81-.69,5.54-1.01,8.32-.33,2.96.04,5.9.41,8.85.35,2.8.8,5.6,1.4,8.36.52,2.4,1.18,4.77,1.83,7.14.57,2.06,1.24,4.15,2.54,5.88,1,1.34,2.53,2.64,4.22,2.95,2.62.48,3.95-2.43,4.69-4.43.92-2.47,1.35-5.13,2.41-7.55.05-.1.2-.06.23.03.87,2.79,1.81,5.55,2.89,8.27,1.71,4.3,3.79,8.48,6.42,12.3,3.42-.24,6.83.14,10.25.51,1.88.2,3.82.53,5.71.53,2.07,0,4.08-.39,6.1-.8,2.02-.41,4.1-.88,6.15-1.15.69-.09,1.39-.1,2.08-.14-.78-.22-1.55-.36-2.35-.51Z"/>
          <path class="uuid-2566e798-9301-4e5c-8fb9-78e259991fd7" d="M313.5,501.69c-.77-.14-1.45-.39-2.18-.68-.98-.38-1.88-.56-2.92-.7-1.49-.21-2.62-.44-3.87-1.31-1.21-.84-1.88-1.77-2.66-2.99-1.59-2.51-3.66-4.69-5.32-7.15-.88-1.3-1.52-2.78-2.77-3.79-1.09-.88-2.32-1.23-3.1-2.49-1.49-2.39-1.62-5.5-2.17-8.19-.6-2.93-1.01-5.9-1.53-8.84-1.1-6.21-1.88-12.56-2.31-18.85-.22-3.33-.53-6.64-.54-9.98,0-1.09,0-2.17,0-3.25-.28.67-.65,1.28-.73,2.03-.04.45-.05.92-.17,1.36-.29,1.08-.93,2.1-1.51,3.05-.3.5-.6,1-.9,1.47.17,2.35.35,4.71.57,7.06.6,6.67,1.42,13.33,2.62,19.92,1.09,6.01,2.27,12.17,4.91,17.72,1.24,2.59,2.8,5.02,4.68,7.19,1.74,2.01,3.69,3.82,5.67,5.59,1.86,1.66,3.76,3.33,5.49,5.15.95-.14,1.89-.33,2.83-.52,2.02-.41,4.1-.88,6.15-1.15.69-.09,1.39-.1,2.08-.14-.78-.22-1.55-.36-2.35-.51Z"/>
          <path class="uuid-2566e798-9301-4e5c-8fb9-78e259991fd7" d="M270.48,494.51c.18-.83.33-1.68.45-2.52.41-2.86.54-5.77.57-8.65.04-3.94-.28-7.89-.91-11.78-.55-3.36-1.31-6.72-2.42-9.94-1.1-3.18-2.6-6.25-4.72-8.88-.86.81-1.59,1.75-2.19,2.77-1.13,1.92-1.82,4.08-2.24,6.26-.28,1.41-.44,2.85-.53,4.29.1,1.42.28,2.83.46,4.25.35,2.8.8,5.6,1.4,8.36.52,2.4,1.18,4.77,1.83,7.14.57,2.06,1.24,4.15,2.54,5.88,1,1.34,2.53,2.64,4.22,2.95.58.11,1.09.05,1.55-.13Z"/>
          <path class="uuid-2566e798-9301-4e5c-8fb9-78e259991fd7" d="M266.97,477.7c0-.56.03-1.11.05-1.67.01-.61.02-1.21.01-1.82-.02-2.38-.22-4.76-.78-7.08-.26-1.1-.6-2.18-1.02-3.24-.21-.54-.44-1.07-.68-1.59-.21-.45-.42-.9-.7-1.31-.35-.51-.74-.99-1.09-1.5-.05.08-.1.16-.15.25-.34.66-.51,1.4-.63,2.12-.13.82-.19,1.64-.24,2.47-.09,1.72-.21,3.43-.25,5.15-.05,2.11.02,4.25.55,6.3.46,1.78,1.06,3.52,1.79,5.2.69,1.6,1.51,3.16,2.54,4.57.05-.1.1-.2.15-.31.31-.76.43-1.6.49-2.42.07-.9.06-1.81.03-2.71-.02-.8-.07-1.61-.07-2.41Z"/>
          <path class="uuid-2566e798-9301-4e5c-8fb9-78e259991fd7" d="M252.68,486.97c-.48-2.2-.96-4.41-1.35-6.63-.39-2.22-.7-4.47-.84-6.72-.02-.28-.03-.56-.04-.85-.34,1.14-.68,2.27-.99,3.42-.38,1.42-.71,2.86-.93,4.32-.2,1.33-.28,2.68-.28,4.02,0,2.02.32,4.04.8,6,.53,2.14,1.29,4.25,2.36,6.18.9,1.63,2.07,3.2,3.63,4.26-.01-.19-.03-.39-.04-.58-.18-2.27-.52-4.52-.93-6.76-.41-2.23-.9-4.44-1.39-6.66Z"/>
          <path class="uuid-2566e798-9301-4e5c-8fb9-78e259991fd7" d="M239.82,456.31c-.28,1.28-.42,2.61-.48,3.91-.06,1.31-.02,2.63.09,3.94.23,2.7.76,5.37,1.48,7.98.62,2.27,1.38,4.5,2.24,6.69,0-.08-.01-.17-.02-.25-.16-2.75-.11-5.5-.07-8.25.04-2.75.06-5.51-.17-8.25-.11-1.26-.3-2.51-.45-3.77-.14-1.19-.26-2.39-.36-3.59-.12-1.49-.2-2.98-.24-4.47-.67,2.02-1.56,3.98-2.02,6.07Z"/>
          <path class="uuid-2566e798-9301-4e5c-8fb9-78e259991fd7" d="M231.93,496.2c-1.01,1.28-2.25,2.36-3.66,3.22-2.36,1.42-5.06,2.2-7.76,2.65-1.39.23-2.8.4-4.2.47-1.52.08-3.04.05-4.55.04-3.06-.03-6.22-.06-9.17.83-1.4.42-2.87,1.07-3.91,2.13-.28.29-.52.59-.75.92.37-.19.75-.37,1.14-.52,1.44-.58,3.1-.54,4.63-.53,1.84.02,3.67.29,5.51.4,1.96.12,3.9-.05,5.86-.04,2.05.01,4.06-.03,6.01-.74,1.58-.58,3.15-1.37,4.8-1.69,1.63-.3,3.05.32,4.66.34.7.01,1.33-.14,1.91-.39-.57-1.26-.7-2.81-.69-4.16,0-.98.09-1.96.18-2.94Z"/>
          <path class="uuid-10a2e6ec-4728-44b7-82fd-53523d6fcaca" d="M205.25,499.08c1.63-.84,3.32-1.55,4.98-2.31,1.65-.75,3.26-1.54,4.69-2.67,1.23-.97,2.33-2.11,3.28-3.36,1.93-2.52,3.47-5.48,4.45-8.49,1.07-3.28,1.53-6.72,1.75-10.15.47-7.36.09-14.77-.15-22.13-.22-6.74-.41-13.48-.19-20.22-.51-.16-1.02-.31-1.54-.43-.56-.13-1.18-.4-1.74-.35-.15.01-.26.04-.36.08,0,.04,0,.08,0,.12.06.9.01,1.8-.02,2.7.01.17.02.35.02.53,0,.05,0,.11,0,.16.18,2.94-.02,5.84,0,8.79.1.78.27,1.55.34,2.34.08.89.05,1.75.07,2.65.01.71.04,1.42.05,2.13.04.67.08,1.34.09,2.01.05,2.75-.23,5.44-.46,8.17-.24,2.99-.42,5.99-.59,8.98-.15,2.57-.02,5.15-.25,7.72-.23,2.68-.73,5.36-1.23,8-.22,1.18-.58,2.11-1.25,3.1-.69,1.02-1.06,2.14-1.52,3.27-.41,1.02-1.01,1.83-1.82,2.57-.77.7-1.76,1.03-2.65,1.58-.95.58-1.91,1.04-2.91,1.53-1.21.6-2.16,1.51-3.05,2.52-.78.89-1.59,1.74-2.42,2.56.78-.5,1.57-.97,2.4-1.4Z"/>
          <path class="uuid-10a2e6ec-4728-44b7-82fd-53523d6fcaca" d="M236.8,505.28c-.37-1.78-.88-3.51-1.16-5.31-.26-1.67-.37-3.35-.3-5.04.08-1.83.44-3.6.72-5.4.28-1.81.48-3.64.61-5.47.24-3.48.19-6.98-.02-10.46-.18-3.03-.48-6.06-.79-9.08-.12,2.13-.32,4.25-.59,6.37-.59,4.67-1.46,9.3-2.17,13.95-.58,3.78-1.04,7.58-1.17,11.4.18-1.86.45-3.73.47-5.59.04.21.09.41.13.62.13.69.23,1.39.27,2.09.05.75,0,1.49,0,2.24,0,.37.01.75.03,1.12,0,.03,0,.06,0,.09-.06,1.55-.01,3.01.15,4.55.05.5.21.97.42,1.41.02-.01.04-.03.07-.05.06.18.13.36.21.53.48,1.02,1.29,1.86,2.06,2.68.76,1.08,1.18,2.41,1.54,3.66.11.37.19.8.41,1.12-.24-1.82-.49-3.64-.87-5.44Z"/>
          <path class="uuid-10a2e6ec-4728-44b7-82fd-53523d6fcaca" d="M272.6,504.53c.33.03.66.05.98.06-.53-.79-1.11-1.54-1.75-2.25-1.2-1.32-2.66-2.34-4.06-3.43-1.31-1.02-2.59-2.11-3.6-3.44-1.07-1.4-1.76-3.06-2.29-4.73-.57-1.78-.94-3.62-1.3-5.45-.79-4-1.72-7.96-2.32-12-.56-3.82-.91-7.66-1.05-11.52-.02.11-.04.22-.06.33-.72,4.1-1.54,8.23-1.56,12.41,0,2.03.16,4.07.51,6.07.35,1.96.84,3.88,1.3,5.81.4,1.72.75,3.44.99,5.19.16,1.17.35,2.33.6,3.49.51,2.35,1.27,4.76,2.74,6.7.38.51.82.97,1.31,1.37,1,.15,2,.28,2.99.49,1.08.23,2.13.59,3.23.69,1.11.1,2.23.11,3.34.21Z"/>
          <path class="uuid-10a2e6ec-4728-44b7-82fd-53523d6fcaca" d="M277.4,473.72c-.11-1.03-.16-2.06-.19-3.1-.07-2.12-.19-4.24-.3-6.36-.11-2.11-.22-4.22-.27-6.33-.03-1.1-.04-2.19-.02-3.29-.03.09-.06.19-.09.28-.37,1.15-.78,2.29-1.17,3.43-.34.99-.65,1.99-.88,3.01-.23,1.02-.41,2.06-.53,3.1-.27,2.26-.33,4.56-.12,6.83.2,2.28.67,4.55,1.53,6.68.78,1.93,1.91,3.72,3.44,5.14-.01-.14-.03-.28-.04-.42-.23-2.01-.61-3.99-.93-5.99-.16-.99-.31-1.99-.42-2.99Z"/>
          <path class="uuid-2566e798-9301-4e5c-8fb9-78e259991fd7" d="M268.17,475.09c-.75-2.87-1.54-5.78-2.42-8.63-.42-1.35-1-2.68-1.56-3.98-.38-.88-.68-2.05-1.4-2.72-.1-.09-.28-.06-.37.02-.45.36-.56.81-.61,1.38-.09,1.1-.24,2.21-.29,3.3-.14,3.13.12,6.24.75,9.31.27,1.33.56,2.66.88,3.98.16.65.41,2.09,1.19,2.35.5.16.86-.22,1.05-.64.5-1.11.52-2.64.69-3.83.06-.4-.51-.18-.56.1-.16.91-.18,2.13-.52,2.99.04.25-.06.4-.29.46-.26.27-.42.18-.5-.28-.22-.29-.3-.79-.4-1.14-.57-2.07-1.01-4.23-1.35-6.35-.32-2-.33-4.04-.34-6.06,0-1.12.17-2.17.27-3.28.03-.37-.07-1.11.07-1.53.46.6.64,1.42.93,2.09.46,1.06.92,2.16,1.31,3.24.8,2.23,1.38,4.62,1.96,6.92.59,2.31,1.52,4.54,1.61,6.94.09,2.5-.08,4.97-.02,7.47.02.94.91,7.12-.64,6.95-.47-.05-1.28-1-1.63-1.34-.4-.39-.78-.82-1.13-1.26-.8-.98-1.27-2.12-1.72-3.29-.44-1.14-.77-2.31-1.12-3.47-.37-1.24-1.01-2.39-1.19-3.7-.16-1.16-.06-2.27-.07-3.43,0-1.27-.18-2.57-.4-3.82-.51-2.89-.68-5.8-.93-8.72-.25-2.95-.89-5.92-1-8.87,0-.17-.26-.01-.26.11,0,3.1.43,6.22.53,9.33.1,2.96.15,5.91.63,8.84.42,2.57-.03,5.31,1.04,7.73.51,1.14,1.08,2.24,1.44,3.44.43,1.42.9,2.82,1.49,4.18.43.99,1,1.89,1.76,2.67.49.5,1.09.94,1.64,1.37.27.21.63.61.99.63,1.11.07,1.11-1.92,1.15-2.6.17-3.11-.15-6.2.15-9.33.25-2.59-.15-5.03-.81-7.53Z"/>
          <path class="uuid-2566e798-9301-4e5c-8fb9-78e259991fd7" d="M271.46,478.73c-.28-2.97-.77-5.9-.99-8.87-.09-1.28-.05-2.64-.28-3.9-.23-1.22-.73-2.33-1.21-3.47-1.11-2.71-2.55-5.36-3.96-7.93-.1-.17-.4.07-.32.22,1.37,2.54,2.35,5.38,3.31,8.11.48,1.36,1.08,2.71,1.21,4.15.13,1.37.19,2.76.3,4.13.23,2.87.88,5.75,1.31,8.6.42,2.79.95,5.52,1.74,8.23.05.18.34-.05.3-.21-.69-3.01-1.13-5.98-1.42-9.06Z"/>
          <path class="uuid-2566e798-9301-4e5c-8fb9-78e259991fd7" d="M290.37,499.53c-2.05-3.54-5.62-6.12-7.23-9.95-1.61-3.84-3.04-7.82-3.62-11.95-.63-4.44-.44-8.9-.74-13.36-.15-2.15-.29-4.3-.55-6.43-.29-2.37-.82-4.68-1.3-7.01-.06-.28-.49-.03-.44.19,1.03,4.69,1.26,9.31,1.44,14.1.17,4.56-.16,9.12.61,13.65.67,3.98,2.11,7.67,3.94,11.27.93,1.83,2.4,3.3,3.75,4.84,1.37,1.56,2.7,3.18,3.85,4.9.09.13.37-.11.29-.24Z"/>
          <path class="uuid-2566e798-9301-4e5c-8fb9-78e259991fd7" d="M289.04,491.92c.19.65.51,1.28.94,1.8.41.5.91.94,1.42,1.33.59.46,1.23.86,1.91,1.19.21.1.43.2.65.28-.79-.79-1.73-1.41-2.54-2.19-1.08-1.04-1.89-2.3-2.56-3.63-.01.41.07.83.18,1.22Z"/>
          <path class="uuid-2566e798-9301-4e5c-8fb9-78e259991fd7" d="M242.84,465.63c-.02-.96-.27-1.94-.53-2.86-.38-1.33-.58-2.78-.64-4.16-.12-2.76-.44-5.5-.54-8.26-.01-.27-.43-.03-.42.18.08,2.73.18,5.46.17,8.19,0,1.29.09,2.64.34,3.91.23,1.14.55,2.26.59,3.43.08,2.42.44,4.85.67,7.26.25,2.67.14,5.36.6,8.02.02.09.15,0,.14-.06-.79-5.14-.28-10.48-.37-15.66Z"/>
          <path class="uuid-2566e798-9301-4e5c-8fb9-78e259991fd7" d="M252.47,485.3c-.31-1.77-.88-3.45-1.16-5.23-.32-2.03-.52-4.08-.78-6.13-.04-.28-.47-.03-.44.19.26,2.13.48,4.27.71,6.4.18,1.65.35,3.57,1.11,5.07.14.29.6-.07.56-.31Z"/>
          <path class="uuid-2566e798-9301-4e5c-8fb9-78e259991fd7" d="M226.9,445.89c-.17-3.5-.33-6.97-.63-10.47-.03-.34-.56-.04-.54.23.28,3.47.31,6.87.36,10.34.05,3.6.61,7.22.47,10.82-.14,3.62-1.08,7.17-2.18,10.6-1,3.1-1.1,6.09-.82,9.3.02.28.4,0,.41-.18.1-1.84-.01-3.65.21-5.5.21-1.77.8-3.46,1.4-5.13,1.1-3.07,1.91-6.25,1.99-9.53.09-3.5-.5-7-.68-10.49Z"/>
          <path class="uuid-2566e798-9301-4e5c-8fb9-78e259991fd7" d="M228.97,483.84c-.4,1.73-.93,3.4-1.18,5.17-.07.48.6.21.66-.12.18-1.05.41-2.08.75-3.09.24-.72.45-1.39.42-2.16-.02-.43-.6-.03-.66.2Z"/>
          <path class="uuid-2566e798-9301-4e5c-8fb9-78e259991fd7" d="M248.99,456.11c-.11-.14-.36-.11-.5-.04-1.14.54-1,2.2-.98,3.25,0,.3.01.69.06,1.07.03.81.17,2.06,1.02,2.2.26.04.54-.22.63-.43.7-1.56.89-4.62-.24-6.05ZM248.75,460.23c-.08-.36-.09-.76-.1-1.07-.01-.28-.02-.55-.02-.83.13.59.16,1.26.12,1.9Z"/>
          <path class="uuid-2566e798-9301-4e5c-8fb9-78e259991fd7" d="M251.98,464.63c-.02-.18-.06-.35-.06-.53,0,0,0,0,0,0-.02-.17-.17-.28-.35-.25-.07.01-.14.04-.21.09,0,0-.02,0-.03,0-.14.04-.3.19-.32.35-.04.35,0,.67.16.99.08.15.26.14.39.07.14-.08.25-.22.27-.39.1-.09.17-.21.15-.33Z"/>
          <path class="uuid-2566e798-9301-4e5c-8fb9-78e259991fd7" d="M235.61,453.14c-.17-.63-.2-1.52-.89-1.81-.12-.05-.25-.03-.37.02-.01-.06-.02-.11-.04-.16,0-.1-.18-.02-.2.07-.02.1-.05.21-.07.33-.02.02-.04.04-.05.06-.68.89-.74,2.54.18,3.29.14.12.36.08.55-.03.09.03.18.02.27-.02.75-.38.81-1,.61-1.75Z"/>
          <path class="uuid-2566e798-9301-4e5c-8fb9-78e259991fd7" d="M241.75,485.29c-.05-.6-.2-1.39-.59-1.88-.34-.42-.94.32-.95.64,0,.1,0,.2.02.29-.17.71.15,1.36.28,2.07.03.14.1.22.24.25.76.12,1.03-.79.99-1.38Z"/>
          <path class="uuid-2566e798-9301-4e5c-8fb9-78e259991fd7" d="M245.02,494.19s-.06-.08-.11-.1c-.07-.03-.14-.03-.21-.02-.02,0-.04,0-.07,0-.01,0-.02,0-.03,0,0,0,0,0-.01,0-.04,0-.08.02-.12.04-.04.02-.08.03-.11.06,0,0,0,0,0,0-.04.02-.07.05-.1.08-.03.03-.06.07-.09.11-.03.04-.05.07-.07.11,0,0,0,0,0,.01-.01.03-.03.07-.03.1,0,.03,0,.05,0,.08,0,.01,0,.03,0,.04,0,.03,0,.05.02.07,0,0,0,0,0,0,0,0,0,0,0,0,.01.03.03.06.05.08.03.02.05.04.08.05,0,0,0,0,0,0,.03.01.06.02.1.02.03,0,.07,0,.1.01.08,0,.16,0,.23-.04.04-.02.08-.04.12-.06.08-.05.15-.12.2-.2.04-.05.07-.11.08-.17.02-.05.03-.11.03-.17,0-.05-.02-.1-.05-.14Z"/>
          <path class="uuid-2566e798-9301-4e5c-8fb9-78e259991fd7" d="M221.59,491.92c-.09-.11-.31-.1-.42-.04-.38.21-.71.59-.66,1.06,0,.07.02.13.04.19-.09.4-.11.83.3.89.31.05.51-.13.66-.37.23-.15.39-.47.26-.69.08-.36.08-.74-.18-1.05Z"/>
          <path class="uuid-2566e798-9301-4e5c-8fb9-78e259991fd7" d="M277.9,490.44c.02-.07.02-.13-.02-.2-.14-.25-.29-.41-.53-.57-.32-.2-.69.28-.77.53-.22.72.02,1.65.5,2.23.32.38.85-.24.93-.52.13-.43.15-1.07-.11-1.48Z"/>
          <path class="uuid-2566e798-9301-4e5c-8fb9-78e259991fd7" d="M280.14,473.09c-.03-.37-.1-.95-.41-1.24,0-.03,0-.06,0-.09.02-.29-.28-.24-.43-.08-.25.02-.46.23-.58.45-.35.62-.63,2.05.25,2.37.03.01.07.02.11.02,0,.03.01.07.02.1.06.36.46.24.65.06.41-.4.43-1.06.39-1.59Z"/>
          <path class="uuid-2566e798-9301-4e5c-8fb9-78e259991fd7" d="M281.09,464.63s-.05-.07-.1-.09c-.06-.02-.11-.04-.17-.04-.1,0-.18.01-.27.05-.08.04-.17.1-.24.16-.07.07-.13.15-.17.24-.03.08-.05.15-.05.24,0,.01,0,.02,0,.04,0,.07.03.13.08.18.04.04.08.06.13.07.05.02.11.02.16,0,.08-.02.16-.05.23-.1l.05-.03s.05-.04.07-.06c.02-.01.04-.03.05-.05.01,0,.02-.02.03-.02.08-.07.16-.15.2-.25.03-.07.04-.14.04-.21,0-.05-.02-.09-.05-.13Z"/>
          <path class="uuid-2566e798-9301-4e5c-8fb9-78e259991fd7" d="M286.51,481.66c-.08-.13-.18-.2-.29-.22.03-.1.01-.2-.07-.27-.05-.04-.09-.09-.14-.13-.34-.31-.83.27-.75.61.04.14.06.29.08.44-.03.1-.04.2-.03.29.02.09.05.16.1.2.05.29.13.58.32.83.23.31.73-.14.82-.35.18-.42.2-1-.05-1.4Z"/>
          <path class="uuid-2566e798-9301-4e5c-8fb9-78e259991fd7" d="M299.92,495.94c-.15-.13-.34-.09-.5,0-.07-.1-.14-.19-.22-.29-.22-.28-.69.16-.72.4-.05.33.05.72.15,1.04.1.33.29.68.67.7.5.03.89-.44.93-.91.02-.3-.07-.73-.3-.94Z"/>
          <path class="uuid-2566e798-9301-4e5c-8fb9-78e259991fd7" d="M229.82,443.8c-.12-.71-.34-1.4-.56-2.08-.19-.56-.29-1.27-.74-1.69-.22-.21-.59-.04-.77.14-.6.61-.51,1.63-.43,2.48-.03,1.28.05,3.03.57,3.76.15.33.34.63.6.87.18.17.46.09.64-.03.77-.51.81-1.36.7-2.19.07-.45.06-.91,0-1.27Z"/>
          <path class="uuid-39a1aaea-8f35-4ef3-b33d-49d267fb2af4" d="M283.88,426.07c-.1-.4-.24-.82-.42-1.23-.19,1.57-.6,3.12-1.19,4.59-1.19,2.97-3.25,6.24-6.46,7.28-.06.02-.14-.02-.15-.09-.08-.39-.06-.78,0-1.17.16-1.04.57-2.03.94-3.01.18-.48.36-.95.51-1.44.15-.51.22-1.02.26-1.55.1-1.17.09-2.4-.31-3.52-.39-1.1-1.21-1.82-2.24-2.3-1.01-.47-2.12-.72-3.17-1.09-1.37-.48-2.74-.96-4.12-1.41-2.79-.92-5.63-1.65-8.54-2.07-5.77-.84-11.65-.57-17.41.26-2.43.35-4.86.75-7.25,1.29-1.52.34-3.08.8-4.41,1.63-.61.38-1.21.86-1.54,1.52-.34.68-.27,1.41.01,2.09.39.97,1.28,1.71,2.11,2.29.85.59,1.77,1.08,2.72,1.48.14.06.03.26-.1.23-2.57-.61-5.11-1.31-7.55-2.32-.86-.35-1.73-.75-2.46-1.35-.71-.58-1.07-1.47-1.01-2.38.03-.45.14-.89.3-1.31-1.04.67-2.18,1.55-2.27,2.8-.06.78.15,1.52.25,2.28.03.25.04.49.04.74.46-.05,1.02.09,1.37.13,1.39.17,2.78.66,4.11,1.08,2.95.95,5.99,2.07,8.57,3.82,1.24.84,2.35,1.92,3.57,2.81,1.31.96,2.57,1.95,3.92,2.85,2.35,1.56,4.8,3.03,7.23,4.47,2.29,1.36,4.47,3.45,7.04,4.22,3.05.91,6.45.2,9.51-.35,2.92-.53,5.89-.92,8.77-1.7,1.49-.4,2.75-.92,3.93-1.93.95-.82,1.54-2.01,2.22-3.06.79-1.23,1.67-2.57,1.99-4.01.18-.82.31-1.62.66-2.4.43-.93.71-1.87.87-2.81.02-1.16.04-2.32.07-3.48-.08-.63-.2-1.26-.36-1.89Z"/>
          <path class="uuid-39a1aaea-8f35-4ef3-b33d-49d267fb2af4" d="M254.01,433.67c1.75.64,3.61,1.01,5.48,1.02.87,0,1.75-.06,2.59-.28.62-.16,1.25-.4,1.72-.85.45-.44.69-1.02.82-1.63.07-.35.14-.73.13-1.09,0-.32-.04-.64-.07-.95-.01-.11-.02-.22-.03-.33-.04.15-.08.31-.13.46-.18.56-.43,1.11-.81,1.58-.38.48-.95.76-1.52.95-1.25.41-2.6.37-3.9.28-3.06-.22-6.09-.89-9-1.89.01.01.03.02.04.04,1.37,1.19,3,2.09,4.69,2.72Z"/>
          <path class="uuid-39a1aaea-8f35-4ef3-b33d-49d267fb2af4" d="M262.39,436.35c-.7.2-1.42.4-2.14.49-.55.07-1.11.09-1.66.19-.44.08-.94.19-1.28.51.05.03.09.06.14.09.47.27.99.43,1.51.55.65.16,1.32.26,1.99.32,1.42.13,2.87.13,4.28-.1.59-.09,1.18-.22,1.73-.44.58-.23,1.09-.61,1.54-1.05,1.11-1.09,1.7-2.56,2.06-4.05.06-.26.12-.52.17-.78-.72.66-1.54,1.23-2.38,1.72-1.18.69-2.45,1.28-3.72,1.78-.73.29-1.48.54-2.23.75Z"/>
          <path class="uuid-39a1aaea-8f35-4ef3-b33d-49d267fb2af4" d="M265.62,440.68c-1.55.43-3.15.68-4.75.73-1.6.05-3.22-.12-4.78-.5-1.55-.38-3.01-.99-4.42-1.72-1.4-.72-2.74-1.56-4.05-2.44-1.3-.87-2.56-1.81-3.87-2.67-1.71-1.13-3.54-2.03-5.37-2.96,1.97,2.06,4.16,3.91,6.39,5.67,1.29,1.01,2.59,2.02,3.93,2.97,1.27.9,2.61,1.7,4.03,2.34,1.44.66,2.96,1.15,4.51,1.47,1.46.3,2.92.47,4.4.34,2.71-.23,5.23-1.38,7.38-3.01.82-.62,1.58-1.3,2.31-2.02-.65.26-1.31.49-1.97.7-1.24.41-2.49.75-3.74,1.09Z"/>
        </g>
        <path class="uuid-39a1aaea-8f35-4ef3-b33d-49d267fb2af4" d="M277.41,428.36c-.29-.27-.89.31-.62.61.99,1.11-.51,3.64-1.03,4.66-.87,1.69-1.96,3.21-3.28,4.57-1.07,1.09-2.26,2.06-3.52,2.91-1.54,1.05-3.25,2.16-5.11,2.45-3.81.59-7.48-.66-10.84-2.36-3.24-1.65-6.53-3.68-9.35-5.98-2.66-2.17-5.07-4.51-7.93-6.45-1.53-1.04-3.1-1.99-4.7-2.9-.61-.35-1.23-.67-1.82-1.05-.37-.25-.94-.63-1.11-1.07-.42-1.05.85-1.81,1.52-2.25,2.97-1.93,6.84-2.89,10.32-3.27,3.69-.41,7.27-.15,10.95.27,2.2.25,4.42.26,6.62.56,1.94.27,3.89.56,5.81.97,2.26.48,4.29,1.29,6.41,2.18,1.94.82,3.73,1.62,5.5,2.79.16.11.44-.24.25-.36-1.82-1.22-3.7-2.03-5.7-2.9-1.91-.83-3.79-1.59-5.83-2.06-2.05-.48-4.14-.81-6.23-1.1-2.27-.32-4.56-.33-6.84-.59-4.06-.48-8.09-.72-12.16-.07-3.43.55-7.54,1.62-10.25,3.92-.86.73-1.44,1.57-.68,2.62,1.03,1.42,3.27,2.19,4.74,3.01,1.94,1.08,3.77,2.32,5.54,3.67,1.71,1.3,3.16,2.87,4.75,4.3,3.02,2.7,6.66,5.01,10.29,6.79,3.5,1.71,7.67,3.03,11.57,1.91,1.78-.51,3.51-1.66,5-2.72,1.6-1.12,3.08-2.43,4.34-3.92,1.3-1.53,2.36-3.26,3.15-5.11.44-1.03,1.26-3.04.22-4Z"/>
        <path class="uuid-39a1aaea-8f35-4ef3-b33d-49d267fb2af4" d="M272.83,427.93c-.56-2.5-3.15-4.36-5.44-5.12-6.2-2.08-13.04-2.34-19.51-2.1-3.46.13-7.06.54-10.45,1.25-.74.16-2.12.39-2.33,1.28-.23.97,1.22,2.48,1.71,3.19.1.15.35-.12.3-.25-.21-.59-.43-1.18-.7-1.75-.25-.52-.81-1.02-.13-1.46.91-.6,2.7-.54,3.75-.7,2.83-.43,5.62-.76,8.48-.82,5.61-.11,11.21.29,16.66,1.65,2.32.58,4.41,1.5,5.93,3.43,1.94,2.46.66,5.47-.85,7.79-.6.93-1.25,2.03-2.08,2.78-1.37,1.22-3.22,1-4.9.69-2.58-.47-5.19-.51-7.77-.92-3.15-.5-5.69-1.88-7.98-4.09-.98-.94-1.95-1.82-3.05-2.62-.97-.71-2.2-1.09-3.07-1.92-.23-.22-.72.26-.5.5.87.95,2.11,1.41,3.13,2.16,1.26.93,2.31,2.04,3.47,3.07,2.2,1.97,4.79,3.11,7.7,3.57,1.63.26,3.28.3,4.91.46,1.63.16,3.2.64,4.84.69,1.05.03,2.06.02,2.94-.62,1.11-.81,1.92-2.07,2.68-3.18,1.37-1.98,2.79-4.46,2.23-6.97Z"/>
        <path class="uuid-39a1aaea-8f35-4ef3-b33d-49d267fb2af4" d="M263.97,423.56c-1.14-.5-2.61-.52-3.83-.57-2.03-.08-4.09,0-6.12.12-2,.11-4.08.25-6.06.57-1.51.24-3.44.55-4.7,1.45-.13.09-.08.3.08.19.97-.65,2.33-.81,3.46-1.03,1.32-.25,2.67-.3,4-.38,2.4-.14,4.79-.19,7.2-.21,1.69-.01,4.17-.2,5.7.69,1.82,1.05.69,4.62.2,6.21-.13.43-.25,1.05-.53,1.4-.6.78-1.43.61-2.22.57-1.21-.06-2.41-.2-3.61-.34-2.28-.28-4.75-.59-6.89-1.46-.92-.38-1.86-.97-2.48-1.77-.63-.81-.56-1.68.47-2,.41-.13.89-.11,1.3-.17,2.34-.32,4.68-1.13,7.06-1.03.53.02,1.39-.04,1.89.13.68.24.51.37.18.89-.51.81-.41,2.02-1.58,2.1-.37.02-4.54-.91-3.99-1.67.28-.38-.17-.6-.46-.31-1.34,1.34,1.04,2.11,2.06,2.41,1.63.47,3.72.89,4.14-1.16.12-.61.23-.95.51-1.47.08-.14.25-.33.29-.49.06-.27.07-.39-.12-.59-.24-.25-.91-.25-1.21-.28-.82-.07-1.65-.13-2.47-.08-1.64.1-3.24.49-4.86.78-1.05.19-2.56.09-3.51.66-2.17,1.31.59,3.74,1.87,4.38,1.29.65,2.77.92,4.18,1.2,1.86.37,3.74.61,5.62.79,1.02.1,2.68.46,3.63-.09.92-.54,1.27-1.96,1.56-2.89.58-1.86,1.62-5.54-.75-6.58Z"/>
        <path class="uuid-39a1aaea-8f35-4ef3-b33d-49d267fb2af4" d="M281.62,426.59c-.83-2.32-2-3.85-4.23-4.95-.15-.08-.39.22-.22.32,4.12,2.31,4.99,8.05,3.07,12.1-.9,1.89-2.72,3.51-4.27,4.89-1.4,1.25-3.02,2.47-4.22,3.91-.14.17.05.36.22.23,1.89-1.45,3.73-3.04,5.42-4.71,1.66-1.64,3.36-3.07,4.14-5.33.75-2.17.87-4.28.09-6.45Z"/>
      </g>
    </g>
  </g>
</svg>