<?xml version="1.0" encoding="UTF-8"?>
<svg id="uuid-d8fed26e-446e-45a7-aa6b-d8a007f86b56" data-name="Ebene 1" xmlns="http://www.w3.org/2000/svg" viewBox="0 0 400 512">
  <defs>
    <style>
      .uuid-189e5059-4521-4c19-8ca6-6f27c40ffd6c {
        fill: #605d4b;
      }

      .uuid-2ae1b3cd-9e59-4dbb-b712-ce480da3c30b {
        fill: #874521;
      }

      .uuid-811ce5ed-7d53-4eb4-9181-a32b0395b392 {
        fill: #bebdaf;
      }

      .uuid-85203fa2-5845-4195-ab5a-4ef1ba808a3f {
        fill: #92562e;
      }

      .uuid-f0a8fb74-0d8b-476e-9614-dc2b77b0535b {
        fill: #333227;
      }

      .uuid-51e2e31d-27e0-4e1e-a37f-577b3936a6ee {
        fill: #7d7a60;
      }

      .uuid-204daff8-c21d-4258-82b6-bd0ab2ac21b4 {
        fill: #c2733d;
      }

      .uuid-89aebb26-a0f3-43e5-8141-cfb6fdb16db4 {
        fill: #5c5938;
      }

      .uuid-6d606c70-24ba-40fe-9174-6a752ca1ee49 {
        fill: #9d9b88;
      }
    </style>
  </defs>
  <path class="uuid-85203fa2-5845-4195-ab5a-4ef1ba808a3f" d="M319.64,450.42v10.74c0,27.97-22.88,50.85-50.85,50.85H121.28c-27.97,0-50.85-22.88-50.85-50.85v-10.74c0,27.97,22.88,50.85,50.85,50.85h147.51c27.97,0,50.85-22.88,50.85-50.85Z"/>
  <path class="uuid-204daff8-c21d-4258-82b6-bd0ab2ac21b4" d="M319.64,421.54v28.87c0,27.97-22.88,50.85-50.85,50.85H121.28c-27.97,0-50.85-22.88-50.85-50.85v-28.87c0,18.19,9.69,34.23,24.16,43.22,7.77,4.83,16.92,7.63,26.7,7.63h147.51c7.62,0,14.87-1.7,21.37-4.74,17.37-8.11,29.48-25.76,29.48-46.11Z"/>
  <path class="uuid-89aebb26-a0f3-43e5-8141-cfb6fdb16db4" d="M113.32,159.48c1.14,4.92,2.6,9.81,4.39,14.63-15.48,4.06-31.31,9.6-47.29,16.95v-73.36c0-26.77,20.97-48.88,47.29-50.72,0,0-5.44,17.15-7.44,40.7-1.32,15.51-1.15,33.81,3.05,51.81Z"/>
  <path class="uuid-89aebb26-a0f3-43e5-8141-cfb6fdb16db4" d="M319.64,117.7v73.36s-20.41-10.17-53.5-17.9c2.67-4.39,4.75-9.2,6.34-14.28,5.14-16.33,5.26-35.37,3.68-51.87-2.13-22.41-7.37-40.16-7.37-40.16,27.97,0,50.85,22.88,50.85,50.85Z"/>
  <path class="uuid-2ae1b3cd-9e59-4dbb-b712-ce480da3c30b" d="M319.64,213.68v15.82c-9.92-3.65-19.76-6.76-29.48-9.37-12.62-3.39-25.03-5.97-37.14-7.85-46.96-7.32-89.27-4.3-121.31,1.12-14.73,2.5-27.29,5.49-37.13,8.22-15.41,4.28-24.16,7.89-24.16,7.89v-15.82s8.75-3.62,24.16-7.89c9.84-2.72,22.4-5.72,37.13-8.22,32.04-5.42,74.35-8.44,121.31-1.12,12.1,1.89,24.51,4.46,37.14,7.85,9.71,2.62,19.56,5.72,29.48,9.37Z"/>
  <path class="uuid-204daff8-c21d-4258-82b6-bd0ab2ac21b4" d="M319.64,191.06v22.62c-9.92-3.65-19.76-6.76-29.48-9.37-12.62-3.39-25.03-5.97-37.14-7.85-46.96-7.32-89.27-4.3-121.31,1.12-14.73,2.5-27.29,5.49-37.13,8.22-15.41,4.28-24.16,7.89-24.16,7.89v-22.62c15.98-7.35,31.82-12.89,47.29-16.95,58.16-15.25,111.28-9.63,148.42-.95h0c33.09,7.74,53.5,17.9,53.5,17.9Z"/>
  <path class="uuid-51e2e31d-27e0-4e1e-a37f-577b3936a6ee" d="M94.58,312.49v152.28c-14.47-8.99-24.16-25.03-24.16-43.22v-109.05h24.16Z"/>
  <path class="uuid-51e2e31d-27e0-4e1e-a37f-577b3936a6ee" d="M94.58,221.61v73.21h-24.16v-65.32s8.75-3.62,24.16-7.89Z"/>
  <path class="uuid-6d606c70-24ba-40fe-9174-6a752ca1ee49" d="M253.02,212.27v82.55h-121.31v-81.43c32.04-5.42,74.35-8.44,121.31-1.12Z"/>
  <path class="uuid-6d606c70-24ba-40fe-9174-6a752ca1ee49" d="M131.71,312.49v159.9h121.31v-159.9h-121.31ZM191.96,393.37c-20,0-36.22-7.37-36.22-16.46s16.21-16.46,36.22-16.46,36.22,7.37,36.22,16.46-16.21,16.46-36.22,16.46Z"/>
  <path class="uuid-6d606c70-24ba-40fe-9174-6a752ca1ee49" d="M228.18,376.91c0,9.09-16.21,16.46-36.22,16.46s-36.22-7.37-36.22-16.46,16.21-16.46,36.22-16.46,36.22,7.37,36.22,16.46Z"/>
  <path class="uuid-51e2e31d-27e0-4e1e-a37f-577b3936a6ee" d="M319.64,229.5v65.32h-29.48v-74.69c9.71,2.62,19.56,5.72,29.48,9.37Z"/>
  <path class="uuid-51e2e31d-27e0-4e1e-a37f-577b3936a6ee" d="M319.64,312.49v109.05c0,20.34-12.11,38-29.48,46.11v-155.16h29.48Z"/>
  <path class="uuid-51e2e31d-27e0-4e1e-a37f-577b3936a6ee" d="M272.48,158.88c-1.6,5.07-3.67,9.88-6.34,14.28h0c-37.14-8.68-90.26-14.3-148.42.95-1.8-4.81-3.25-9.71-4.39-14.63-4.2-18-4.37-36.29-3.05-51.81,3.55-.79,7.23-1.21,11-1.21h147.51c2.51,0,4.97.18,7.37.54,1.57,16.51,1.46,35.55-3.68,51.87Z"/>
  <path class="uuid-89aebb26-a0f3-43e5-8141-cfb6fdb16db4" d="M70.42,359.74v71.13c0,10.48-8.58,19.06-19.05,19.06h-2.29v-90.19h21.34Z"/>
  <path class="uuid-6d606c70-24ba-40fe-9174-6a752ca1ee49" d="M31.41,359.74v89.65c-8.34-2.03-14.58-9.58-14.58-18.52v-71.13h14.58Z"/>
  <path class="uuid-6d606c70-24ba-40fe-9174-6a752ca1ee49" d="M31.41,219.26v103.35h-14.58v-84.83c0-8.94,6.24-16.49,14.58-18.52Z"/>
  <path class="uuid-89aebb26-a0f3-43e5-8141-cfb6fdb16db4" d="M70.42,237.78v84.83h-21.34v-103.89h2.29c10.48,0,19.05,8.58,19.05,19.06Z"/>
  <path class="uuid-89aebb26-a0f3-43e5-8141-cfb6fdb16db4" d="M342.82,218.75v102.13h-23.19v-83.07c0-10.48,8.58-19.06,19.06-19.06h4.13Z"/>
  <path class="uuid-6d606c70-24ba-40fe-9174-6a752ca1ee49" d="M373.23,237.81v83.07h-12.74v-101.04c7.4,2.62,12.74,9.71,12.74,17.98Z"/>
  <path class="uuid-89aebb26-a0f3-43e5-8141-cfb6fdb16db4" d="M342.82,358.02v91.95h-4.13c-10.48,0-19.06-8.58-19.06-19.06v-72.89h23.19Z"/>
  <path class="uuid-6d606c70-24ba-40fe-9174-6a752ca1ee49" d="M373.23,358.02v72.89c0,8.27-5.34,15.36-12.74,17.98v-90.87h12.74Z"/>
  <rect class="uuid-811ce5ed-7d53-4eb4-9181-a32b0395b392" x="70.42" y="294.82" width="24.16" height="17.67"/>
  <rect class="uuid-811ce5ed-7d53-4eb4-9181-a32b0395b392" x="131.71" y="294.82" width="121.31" height="17.67"/>
  <path class="uuid-811ce5ed-7d53-4eb4-9181-a32b0395b392" d="M49.08,359.74v90.19h-13.19c-1.54,0-3.04-.18-4.48-.54v-89.65h17.67Z"/>
  <path class="uuid-811ce5ed-7d53-4eb4-9181-a32b0395b392" d="M360.49,358.02v90.87c-1.98.7-4.1,1.08-6.31,1.08h-11.35v-91.95h17.66Z"/>
  <rect class="uuid-f0a8fb74-0d8b-476e-9614-dc2b77b0535b" x="16.83" y="322.61" width="53.59" height="37.14"/>
  <rect class="uuid-f0a8fb74-0d8b-476e-9614-dc2b77b0535b" x="319.64" y="320.88" width="53.59" height="37.14"/>
  <path class="uuid-85203fa2-5845-4195-ab5a-4ef1ba808a3f" d="M228.18,376.91c0,9.09-16.21,16.46-36.22,16.46s-36.22-7.37-36.22-16.46,16.21-16.46,36.22-16.46,36.22,7.37,36.22,16.46Z"/>
  <ellipse class="uuid-85203fa2-5845-4195-ab5a-4ef1ba808a3f" cx="192.37" cy="131.85" rx="26.84" ry="10.46"/>
  <path class="uuid-204daff8-c21d-4258-82b6-bd0ab2ac21b4" d="M32.39,247.12c-4.18-.9-8.31,1.76-9.21,5.94-.52,2.42.15,4.83,1.63,6.6l-3.25,15.08c-.53,2.47,1.05,4.92,3.52,5.46l.35.07c2.47.53,4.92-1.05,5.46-3.52l3.25-15.08c2.07-1,3.68-2.92,4.2-5.34.9-4.18-1.76-8.31-5.94-9.21ZM29.42,274.55c-.31,1.45-1.76,2.38-3.21,2.07-1.45-.31-2.38-1.75-2.07-3.2l1.43-6.62c.31-1.45,1.75-2.38,3.2-2.07.73.16,1.32.59,1.7,1.18s.53,1.3.37,2.03l-1.43,6.62Z"/>
  <path class="uuid-204daff8-c21d-4258-82b6-bd0ab2ac21b4" d="M353.25,254.5c-3.9,1.77-5.63,6.36-3.86,10.26,1.02,2.26,3,3.79,5.24,4.33l6.37,14.05c1.04,2.3,3.78,3.33,6.08,2.28l.32-.15c2.3-1.04,3.33-3.78,2.28-6.08l-6.37-14.05c1.07-2.04,1.22-4.53.19-6.79-1.77-3.9-6.36-5.63-10.26-3.86ZM367.2,278.3c.61,1.35,0,2.96-1.35,3.57-1.35.61-2.96,0-3.57-1.34l-2.8-6.17c-.61-1.35,0-2.96,1.34-3.57.68-.31,1.42-.31,2.07-.07.65.24,1.2.73,1.51,1.41l2.8,6.17Z"/>
  <path class="uuid-204daff8-c21d-4258-82b6-bd0ab2ac21b4" d="M304.71,303.95c-4.28.1-7.66,3.66-7.56,7.94.06,2.48,1.28,4.66,3.13,6.03l.38,15.42c.06,2.52,2.18,4.54,4.7,4.48h.36c2.52-.07,4.54-2.19,4.48-4.71l-.38-15.42c1.78-1.46,2.89-3.7,2.83-6.18-.1-4.28-3.66-7.66-7.93-7.56ZM308.25,331.31c.04,1.48-1.15,2.73-2.63,2.76-1.48.04-2.73-1.15-2.76-2.63l-.16-6.77c-.04-1.48,1.15-2.73,2.63-2.76.74-.02,1.43.27,1.93.75.5.48.82,1.14.84,1.89l.16,6.77Z"/>
  <path class="uuid-204daff8-c21d-4258-82b6-bd0ab2ac21b4" d="M131.52,97.97c-4.28.1-7.66,3.66-7.56,7.94.06,2.48,1.28,4.66,3.13,6.03l.38,15.42c.06,2.52,2.18,4.54,4.7,4.48h.36c2.52-.07,4.54-2.19,4.48-4.71l-.38-15.42c1.78-1.46,2.89-3.7,2.83-6.18-.1-4.28-3.66-7.66-7.93-7.56ZM135.06,125.34c.04,1.48-1.15,2.73-2.63,2.76-1.48.04-2.73-1.15-2.76-2.63l-.16-6.77c-.04-1.48,1.15-2.73,2.63-2.76.74-.02,1.43.27,1.93.75.5.48.82,1.14.84,1.89l.16,6.77Z"/>
  <rect class="uuid-811ce5ed-7d53-4eb4-9181-a32b0395b392" x="290.16" y="294.82" width="29.48" height="17.67"/>
  <path class="uuid-811ce5ed-7d53-4eb4-9181-a32b0395b392" d="M49.08,218.72v103.89h-17.67v-103.35c1.44-.36,2.94-.54,4.48-.54h13.19Z"/>
  <path class="uuid-811ce5ed-7d53-4eb4-9181-a32b0395b392" d="M360.49,219.84v101.04h-17.66v-102.13h11.35c2.21,0,4.34.38,6.31,1.08Z"/>
  <path class="uuid-6d606c70-24ba-40fe-9174-6a752ca1ee49" d="M276.16,107c-2.41-.36-4.87-.54-7.37-.54H121.28c-3.77,0-7.46.42-11,1.21,2-23.55,7.44-40.7,7.44-40.7,1.18-.08,2.36-.13,3.56-.13h147.51s5.24,17.75,7.37,40.16Z"/>
  <path class="uuid-2ae1b3cd-9e59-4dbb-b712-ce480da3c30b" d="M343.59,315.4l-8.33.19c-.49.01-.88.57-.88,1.26v45.53c0,.7.4,1.26.9,1.26h8.06s7.02-.02,7.02-.02c.49,0,.89-.57.89-1.26v-45.85c0-.7-.41-1.27-.91-1.26l-6.76.15ZM348.66,322.2v34.44c0,.69-.4,1.26-.89,1.26l-4.02.03h-6.26c-.5,0-.9-.57-.89-1.27l.23-34.47c0-.69.4-1.25.89-1.25h10.05c.49,0,.89.57.89,1.26Z"/>
  <path class="uuid-2ae1b3cd-9e59-4dbb-b712-ce480da3c30b" d="M51.69,317.13l-8.33.19c-.49.01-.88.57-.88,1.26v45.53c0,.7.4,1.26.9,1.26h8.06s7.02-.02,7.02-.02c.49,0,.89-.57.89-1.26v-45.85c0-.7-.41-1.27-.91-1.26l-6.76.15ZM56.76,323.93v34.44c0,.69-.4,1.26-.89,1.26l-4.02.03h-6.26c-.5,0-.9-.57-.89-1.27l.23-34.47c0-.69.4-1.25.89-1.25h10.05c.49,0,.89.56.89,1.26Z"/>
  <path class="uuid-189e5059-4521-4c19-8ca6-6f27c40ffd6c" d="M246,428.76c-7.61,0-15.73-1.29-24.31-3.88-15.42-4.65-32.4-13.48-50.44-26.23-30.66-21.67-54.16-47.57-54.4-47.83-.34-.38-.4-.93-.14-1.37.26-.44.78-.65,1.27-.54,13.64,3.26,29.83.59,48.13-7.95,14.75-6.88,30.86-17.55,47.9-31.71,23.58-19.6,42.47-40.61,48.88-47.98-36.82,8.59-72.19.17-95.68-8.59-26.24-9.78-43.75-22.1-43.92-22.23l1.34-1.9c.17.12,17.48,12.29,43.45,21.97,23.92,8.91,60.29,17.46,97.76,7.62.49-.13,1,.07,1.28.5s.24.98-.09,1.37c-.22.26-22.27,26.7-51.5,51-17.2,14.3-33.49,25.08-48.41,32.05-17.23,8.04-32.71,11-46.08,8.83,6.77,7.12,26.83,27.39,51.59,44.89,17.84,12.6,34.58,21.31,49.76,25.89,18.82,5.67,35.26,4.95,48.87-2.15l1.07,2.06c-7.91,4.12-16.71,6.19-26.32,6.19Z"/>
  <path class="uuid-189e5059-4521-4c19-8ca6-6f27c40ffd6c" d="M127.06,431.03c-3.32,0-6.49-.23-9.52-.7l.36-2.3c23.18,3.6,56.97-7.74,97.74-32.8,23.77-14.62,43.6-30.03,51.61-36.47-20.39,2.93-51.02-11.94-91.16-44.28-32.22-25.96-58.94-54.14-59.2-54.42-.35-.37-.42-.91-.17-1.36.24-.44.75-.68,1.24-.58,53.59,10.2,92.34,1.65,115.41-7.32,24.99-9.72,37.48-22,37.61-22.13l1.64,1.64c-.51.51-12.88,12.7-38.27,22.6-22.86,8.91-60.89,17.42-113.26,8.14,7.36,7.56,30.07,30.34,56.49,51.63,42.24,34.03,74.7,48.81,93.88,42.75.53-.17,1.1.06,1.37.55.27.49.15,1.09-.27,1.45-.24.2-24.6,20.66-55.66,39.76-36.58,22.49-66.72,33.84-89.81,33.84Z"/>
  <path class="uuid-f0a8fb74-0d8b-476e-9614-dc2b77b0535b" d="M131.71,213.39v259h-10.43c-9.78,0-18.93-2.8-26.7-7.63v-243.16c9.84-2.72,22.4-5.72,37.13-8.22Z"/>
  <path class="uuid-f0a8fb74-0d8b-476e-9614-dc2b77b0535b" d="M290.16,220.13v247.52c-6.5,3.04-13.75,4.74-21.37,4.74h-15.77V212.27c12.1,1.89,24.51,4.46,37.14,7.85Z"/>
  <polygon class="uuid-2ae1b3cd-9e59-4dbb-b712-ce480da3c30b" points="96.29 276.21 96.29 285.65 91.18 288.94 91.1 274.45 91.09 273.3 92.85 274.29 96.29 276.21"/>
  <path class="uuid-204daff8-c21d-4258-82b6-bd0ab2ac21b4" d="M129.56,276.71v8.48c0,.29.17.57.46.75l4.64,2.98h0s1.66,1.07,1.66,1.07c.28.18.45.45.46.73l.13,3.88h0c.02.55-.55,1-1.26,1h-45.45c-.71,0-1.28-.45-1.26-1l.13-3.88c0-.28.18-.55.46-.73l1.66-1.07,4.65-2.99c.29-.19.46-.46.46-.75v-8.48c0-.31-.19-.61-.52-.79l-2.91-1.64-1.76-.98-2.91-1.64c-.33-.18-.52-.48-.52-.79v-10.64c0-.54.56-.98,1.26-.98h4.34c.7,0,1.26.44,1.26.98v5.09c0,.54.56.98,1.26.98h34.57c.7,0,1.26-.44,1.26-.98v-5.09c0-.54.56-.98,1.26-.98h4.06c.7,0,1.26.44,1.26.98v10.64c0,.31-.19.61-.52.79l-2.91,1.64-1.34.75-3.33,1.87c-.33.18-.52.48-.52.79Z"/>
  <polygon class="uuid-2ae1b3cd-9e59-4dbb-b712-ce480da3c30b" points="134.76 273.3 134.75 274.17 134.67 288.93 129.57 285.65 129.57 276.21 133.42 274.05 134.76 273.3"/>
  <path class="uuid-2ae1b3cd-9e59-4dbb-b712-ce480da3c30b" d="M137.15,304.82l-.19-8.33c-.01-.49-.57-.88-1.26-.88h-45.53c-.7,0-1.26.4-1.26.9v8.06s.02,7.02.02,7.02c0,.49.57.89,1.26.89h45.85c.7,0,1.27-.41,1.26-.91l-.15-6.76ZM130.35,309.89h-34.44c-.69,0-1.26-.4-1.26-.89l-.03-4.02v-6.26c0-.5.57-.9,1.27-.89l34.47.23c.69,0,1.25.4,1.25.89v10.05c0,.49-.57.89-1.26.89Z"/>
  <polygon class="uuid-2ae1b3cd-9e59-4dbb-b712-ce480da3c30b" points="254.95 276.17 254.95 285.61 249.85 288.89 249.77 274.4 249.76 273.26 251.52 274.24 254.95 276.17"/>
  <path class="uuid-204daff8-c21d-4258-82b6-bd0ab2ac21b4" d="M288.23,276.67v8.48c0,.29.17.57.46.75l4.64,2.98h0s1.66,1.07,1.66,1.07c.28.18.45.45.46.73l.13,3.88h0c.02.55-.55,1-1.26,1h-45.45c-.71,0-1.28-.45-1.26-1l.13-3.88c0-.28.18-.55.46-.73l1.66-1.07,4.65-2.99c.29-.19.46-.46.46-.75v-8.48c0-.31-.19-.61-.52-.79l-2.91-1.64-1.76-.98-2.91-1.64c-.33-.18-.52-.48-.52-.79v-10.64c0-.54.56-.98,1.26-.98h4.34c.7,0,1.26.44,1.26.98v5.09c0,.54.56.98,1.26.98h34.57c.7,0,1.26-.44,1.26-.98v-5.09c0-.54.56-.98,1.26-.98h4.06c.7,0,1.26.44,1.26.98v10.64c0,.31-.19.61-.52.79l-2.91,1.64-1.34.75-3.33,1.87c-.33.18-.52.48-.52.79Z"/>
  <polygon class="uuid-2ae1b3cd-9e59-4dbb-b712-ce480da3c30b" points="293.43 273.26 293.42 274.12 293.33 288.89 288.23 285.61 288.23 276.17 292.09 274.01 293.43 273.26"/>
  <path class="uuid-2ae1b3cd-9e59-4dbb-b712-ce480da3c30b" d="M295.82,304.78l-.19-8.33c-.01-.49-.57-.88-1.26-.88h-45.53c-.7,0-1.26.4-1.26.9v8.06s.02,7.02.02,7.02c0,.49.57.89,1.26.89h45.85c.7,0,1.27-.41,1.26-.91l-.15-6.76ZM289.02,309.85h-34.44c-.69,0-1.26-.4-1.26-.89l-.03-4.02v-6.26c0-.5.57-.9,1.27-.89l34.47.23c.69,0,1.25.4,1.25.89v10.05c0,.49-.57.89-1.26.89Z"/>
</svg>